<?xml version="1.0" standalone="no"?>
<!DOCTYPE svg PUBLIC "-//W3C//DTD SVG 1.1//EN" "http://www.w3.org/Graphics/SVG/1.1/DTD/svg11.dtd" >
<svg xmlns="http://www.w3.org/2000/svg">
<metadata>Generated by IcoMoon</metadata>
<defs>
<font id="ic" horiz-adv-x="1024">
<font-face units-per-em="1024" ascent="960" descent="-64" />
<missing-glyph horiz-adv-x="1024" />
<glyph unicode="&#x20;" horiz-adv-x="512" d="" />
<glyph unicode="&#xe900;" glyph-name="angle_left" d="M301.634 407.93l345.6-345.6c20.034-20.034 55.096-20.034 80.14 0 20.034 20.034 20.034 55.096 0 80.14l-310.54 305.53 305.53 305.53c20.034 20.034 20.034 55.096 0 80.14-20.034 20.034-55.096 20.034-80.14 0l-345.6-345.6c-10.018-10.018-15.026-25.044-15.026-40.070s5.008-30.052 20.034-40.070z" />
<glyph unicode="&#xe901;" glyph-name="angle_right" d="M722.366 488.070l-345.6 345.6c-20.034 20.034-55.096 20.034-80.14 0-20.034-20.034-20.034-55.096 0-80.14l310.54-305.53-305.53-305.53c-20.034-20.034-20.034-55.096 0-80.14 20.034-20.034 55.096-20.034 80.14 0l345.6 345.6c10.018 10.018 15.026 25.044 15.026 40.070s-5.008 30.052-20.034 40.070z" />
<glyph unicode="&#xe902;" glyph-name="cart" horiz-adv-x="1165" d="M375.377 277.315h619.035c15.517 0.017 28.61 10.373 32.761 24.55l0.061 0.242 136.515 477.831c0.844 2.825 1.33 6.072 1.33 9.432 0 18.841-15.274 34.115-34.115 34.115-0.013 0-0.025 0-0.038 0h-834.504l-24.36 109.784c-3.439 15.504-17.063 26.929-33.359 26.947h-204.802c-18.278-0.749-32.812-15.748-32.812-34.142s14.534-33.393 32.745-34.14l0.068-0.002h177.421l123.257-554.577c-36.577-16.162-61.641-52.124-61.641-93.939 0-56.53 45.807-102.361 102.328-102.4h618.931c18.856 0 34.142 15.286 34.142 34.142s-15.286 34.142-34.142 34.142v0h-618.712c-18.841 0-34.115 15.274-34.115 34.115s15.274 34.115 34.115 34.115v0zM1085.709 755.2l-117.059-409.6h-565.895l-91.028 409.6zM341.315 38.4c0-56.554 45.846-102.4 102.4-102.4s102.4 45.846 102.4 102.4c0 56.554-45.846 102.4-102.4 102.4v0c-56.554 0-102.4-45.846-102.4-102.4v0zM443.715 72.515c18.841 0 34.115-15.274 34.115-34.115s-15.274-34.115-34.115-34.115c-18.841 0-34.115 15.274-34.115 34.115v0c0.031 18.829 15.286 34.085 34.112 34.115h0.003zM823.727 38.4c0-56.554 45.846-102.4 102.4-102.4s102.4 45.846 102.4 102.4c0 56.554-45.846 102.4-102.4 102.4v0c-56.554 0-102.4-45.846-102.4-102.4v0zM926.127 72.515c18.841 0 34.115-15.274 34.115-34.115s-15.274-34.115-34.115-34.115c-18.841 0-34.115 15.274-34.115 34.115v0c0.031 18.829 15.286 34.085 34.112 34.115h0.003z" />
<glyph unicode="&#xe903;" glyph-name="global" d="M481.826 236.373v181.453h-180.634c1.526-71.431 9.679-140.044 23.877-206.417l-1.281 7.147c46.733 9.822 101.127 16.234 156.736 17.789l1.301 0.029zM542.174-58.539c74.069 28.126 121.173 141.926 143.36 218.453-42.312 8.74-91.653 14.509-142.066 16.012l-1.294 0.031zM744.926 145.442c-18.771-71.938-48.547-134.977-87.865-190.811l1.235 1.849c86.137 26.066 159.791 71.549 218.721 131.543l0.074 0.075c-37.275 20.856-80.942 40.334-126.421 55.908l-5.743 1.709zM481.826 478.174v181.453c-56.894 1.557-111.293 7.946-164.069 18.784l6.032-1.035c-12.918-59.227-21.072-127.841-22.576-198.091l-0.020-1.179h180.634zM481.826 954.539c-74.069-28.126-121.173-141.926-143.36-218.453 42.312-8.74 91.653-14.509 142.066-16.012l1.294-0.031zM279.074 145.442c-50.224-14.052-94.141-33.73-134.296-58.861l2.132 1.244c59.022-59.968 132.676-105.362 215.183-130.403l3.611-0.942c-38.144 54.079-67.948 117.236-85.792 185.238l-0.906 4.065zM279.074 750.558c18.771 71.938 48.547 134.977 87.865 190.811l-1.235-1.849c-86.119-25.983-159.773-71.377-218.729-131.278l-0.066-0.067c37.276-20.857 80.943-40.335 126.423-55.909l5.741-1.708zM481.826-58.539v234.496c-51.707-1.534-101.048-7.303-148.969-16.989l5.609 0.946c22.187-76.527 69.359-190.327 143.36-218.453zM542.174 417.826v-181.453c56.894-1.557 111.293-7.946 164.069-18.784l-6.032 1.035c12.918 59.227 21.072 127.841 22.576 198.091l0.020 1.179zM240.777 478.174c1.521 76.502 10.147 150.072 25.251 221.25l-1.358-7.643c-60.032 16.451-112.592 40.633-160.038 71.938l2.068-1.282c-61.316-78.019-100.489-176.036-106.638-282.905l-0.062-1.357zM264.67 204.22c-13.747 63.535-22.373 137.107-23.875 212.426l-0.019 1.181h-240.777c6.211-108.226 45.384-206.243 107.531-285.36l-0.831 1.097c45.376 30.022 97.936 54.204 154.088 69.74l3.881 0.916zM759.33 691.78c13.747-63.535 22.373-137.107 23.875-212.426l0.019-1.181h240.777c-6.211 108.226-45.384 206.243-107.531 285.36l0.831-1.097c-45.377-30.022-97.937-54.203-154.088-69.74l-3.881-0.916zM783.223 417.826c-1.521-76.502-10.147-150.072-25.251-221.25l1.358 7.643c60.032-16.451 112.592-40.633 160.038-71.938l-2.068 1.282c61.316 78.019 100.489 176.036 106.638 282.905l0.062 1.357zM877.090 808.175c-59.022 59.968-132.676 105.362-215.183 130.403l-3.611 0.942c38.142-54.080 67.946-117.238 85.792-185.238l0.906-4.065c50.224 14.051 94.141 33.729 134.296 58.861l-2.131-1.244zM542.174 659.627v-181.453h180.634c-1.526 71.431-9.679 140.044-23.877 206.417l1.281-7.147c-46.735-9.825-101.129-16.237-156.739-17.789l-1.298-0.029zM542.174 954.539v-234.496c51.707 1.534 101.048 7.303 148.969 16.989l-5.609-0.946c-22.187 76.527-69.359 190.327-143.36 218.453z" />
<glyph unicode="&#xe904;" glyph-name="angle_down" d="M512 220.8c14.98 0 29.959 4.994 39.947 14.98l344.544 344.544c19.974 19.974 19.974 54.928 0 79.893-19.974 19.974-54.928 19.974-79.893 0l-304.599-304.599-304.599 304.599c-19.974 19.974-54.928 19.974-79.893 0-19.974-19.974-19.974-54.928 0-79.893l344.544-344.544c9.987-9.987 24.968-14.98 39.947-14.98z" />
<glyph unicode="&#xe905;" glyph-name="hotline" d="M801.041 298.291c-40.94-55.982-106.381-91.938-180.221-91.955h-103.905c-35.638 0.019-66.023 22.493-77.773 54.040l-0.187 0.574c-16.307 4.846-30.225 10.415-43.503 17.074l1.519-0.69c-30.339 15.352-56.239 34.735-78.262 57.844l-0.108 0.114c-151.065-34.263-262.166-167.332-262.281-326.37v-20.902c0-28.729 23.29-52.019 52.019-52.019v0h807.322c28.729 0 52.019 23.29 52.019 52.019v0 20.89c0 0.014 0 0.030 0 0.047 0 122.912-66.292 230.341-165.073 288.483l-1.566 0.853zM263.305 442.812c22.239 0.019 41.608 12.286 51.729 30.419l0.154 0.301 0.819-2.185v-0.614c22.45-62.642 69.334-111.775 128.865-136.718l1.525-0.567c14.907 23.445 40.747 38.776 70.169 38.776 0.123 0 0.247 0 0.37-0.001h103.815c10.466 0.022 20.278 2.805 28.751 7.659l-0.284-0.15c13.799 10.342 25.042 23.308 33.144 38.226l0.307 0.618c9.635 15.605 18.382 33.623 25.278 52.532l0.664 2.082c4.193-7.502 9.686-13.779 16.235-18.733l0.149-0.108v-25.463c-0.387-57.32-46.885-103.651-104.232-103.765h-103.845c-18.961-0.857-34.009-16.438-34.009-35.533s15.048-34.676 33.932-35.53l0.077-0.003h103.834c96.849 0.117 175.329 78.597 175.445 175.434v25.338c14.448 10.912 23.689 28.057 23.689 47.36 0 0.006 0 0.012 0 0.018v-0.001 148.139c-0.077 19.605-9.674 36.952-24.406 47.669l-0.17 0.118c-11.994 146.998-134.249 261.752-283.307 261.752s-271.313-114.754-283.24-260.736l-0.067-1.016c-14.902-10.834-24.499-28.182-24.576-47.774v-148.355c0.039-32.673 26.515-59.148 59.184-59.187h0.004zM512 888.866c110.217-0.116 200.86-83.77 212.027-191.047l0.077-0.919c-6.948-5.473-12.564-12.311-16.501-20.138l-0.156-0.342c-28.116 83.966-104.236 144.176-194.976 148.326l-0.471 0.017c-91.079-4.223-167.089-64.281-194.865-146.549l-0.446-1.522v-0.341c-4.093 8.169-9.709 15.007-16.531 20.384l-0.127 0.096c11.207 108.179 101.787 191.842 211.949 192.034h0.019z" />
<glyph unicode="&#xe906;" glyph-name="email" d="M541.628 318.635c-8.609-5.305-19.042-8.448-30.208-8.448s-21.599 3.143-30.461 8.593l0.253-0.145-481.212 293.82v-390.485c0.039-83.458 67.685-151.104 151.139-151.142h721.719c83.434 0.039 151.065 67.645 151.142 151.066v390.562zM872.858 825.173h-721.715c-71.495-0.245-131.204-50.408-146.109-117.444l-0.187-0.999 507.767-309.521 506.539 309.521c-15.092 68.035-74.801 118.198-146.269 118.443h-0.027z" />
<glyph unicode="&#xe907;" glyph-name="angle_up" d="M471.93 658.366l-345.6-345.6c-20.034-20.034-20.034-55.096 0-80.14 20.034-20.034 55.096-20.034 80.14 0l305.53 310.54 305.53-305.53c20.034-20.034 55.096-20.034 80.14 0 20.034 20.034 20.034 55.096 0 80.14l-345.6 345.6c-10.018 10.018-25.044 15.026-40.070 15.026s-30.052-5.008-40.070-20.034z" />
<glyph unicode="&#xe908;" glyph-name="facebook" d="M921.6 960h-819.2c-56.554 0-102.4-45.846-102.4-102.4v0-819.2c0-56.554 45.846-102.4 102.4-102.4v0h819.2c56.554 0 102.4 45.846 102.4 102.4v0 819.2c0 56.554-45.846 102.4-102.4 102.4v0zM674.133 664.61h-59.187c-46.421 0-55.364-22.801-55.433-56.115v-79.462h104.789l-14.336-115.234h-90.385v-290.065h-115.507v290.065h-94.208v115.302h94.208v90.59c-0.571 4.697-0.897 10.136-0.897 15.65 0 75.631 61.311 136.943 136.943 136.943 2.741 0 5.464-0.081 8.165-0.239l-0.373 0.018c0.762 0.003 1.664 0.004 2.567 0.004 29.471 0 58.553-1.663 87.158-4.9l-3.504 0.322z" />
<glyph unicode="&#xe909;" glyph-name="phone" d="M996.352 208.521l-143.36 142.882c-17.293 17.82-41.467 28.879-68.224 28.879-41.586 0-76.932-26.712-89.817-63.915l-0.201-0.667c-14.069-37.514-49.629-63.731-91.312-63.731-7.437 0-14.68 0.835-21.639 2.415l0.652-0.125c-123.823 45.607-219.687 141.628-264.097 262.5l-0.983 3.057c-2.028 7.226-3.193 15.525-3.193 24.095 0 41.134 26.849 75.997 63.979 88.020l0.655 0.183c37.87 13.086 64.582 48.433 64.582 90.018 0 26.757-11.059 50.931-28.855 68.201l-0.024 0.023-143.087 142.882c-18.079 16.633-42.306 26.83-68.915 26.83s-50.836-10.197-68.988-26.896l0.073 0.066-96.939-97.007c-96.939-102.4 10.24-372.599 250.061-612.42s510.362-352.119 612.42-250.061l96.939 96.939c16.716 18.098 26.967 42.384 26.967 69.064 0 26.538-10.142 50.707-26.762 68.842l0.069-0.076z" />
<glyph unicode="&#xe90a;" glyph-name="youtube" d="M921.873 960h-819.2c-56.554 0-102.4-45.846-102.4-102.4v0-819.2c0-56.554 45.846-102.4 102.4-102.4v0h819.2c56.554 0 102.4 45.846 102.4 102.4v0 819.2c0 56.554-45.846 102.4-102.4 102.4v0zM810.189 448v0c0.898-9.379 1.41-20.278 1.41-31.297 0-48.223-9.804-94.157-27.528-135.915l0.86 2.28c-16.179-28.74-33.655-34.133-69.427-36.386s-125.406-3.277-203.093-3.277-167.663 1.229-203.298 3.345-53.18 7.646-69.495 36.386c-16.804 39.556-26.572 85.563-26.572 133.851 0 10.942 0.502 21.768 1.483 32.454l-0.102-1.373c-0.875 9.311-1.375 20.134-1.375 31.073 0 48.384 9.764 94.488 27.43 136.448l-0.865-2.315c16.316 28.809 34.133 34.133 69.564 36.113s125.406 3.345 203.23 3.345 167.39-1.024 203.093-3.413 53.248-7.305 69.359-36.045c16.95-39.569 26.806-85.617 26.806-133.966 0-11.023-0.512-21.925-1.514-32.686l0.104 1.378zM437.521 336.316l186.163 111.753-186.163 111.684z" />
<glyph unicode="&#xe90b;" glyph-name="zalo" d="M921.6 960h-819.2c-56.554 0-102.4-45.846-102.4-102.4v0-819.2c0-56.554 45.846-102.4 102.4-102.4v0h819.2c56.554 0 102.4 45.846 102.4 102.4v0 819.2c0 56.554-45.846 102.4-102.4 102.4v0zM796.672 705.638v-341.879c-11.824 12.094-28.303 19.593-46.534 19.593-0.008 0-0.017 0-0.025 0h-132.573l179.132 244.053v78.234c-9.016 8.091-20.997 13.039-34.133 13.039h-270.951c-36.025 0-65.229-29.204-65.229-65.229s29.204-65.229 65.229-65.229v0h113.937l-184.32-254.089c-6.085-8.318-9.737-18.751-9.737-30.037 0-28.268 22.909-51.186 51.173-51.2h287.609c0.024 0 0.053 0 0.081 0 18.213 0 34.674 7.5 46.464 19.58l0.013 0.013v-11.401c0-32.16-26.071-58.231-58.231-58.231h-251.972l-110.251-79.189v79.189h-90.863c-32.16 0-58.231 26.071-58.231 58.231v0 452.949c0 32.16 26.071 58.231 58.231 58.231v0h453.018c32.16 0 58.231-26.071 58.231-58.231v0z" />
<glyph unicode="&#xe90c;" glyph-name="arrow_right_long" horiz-adv-x="1184" d="M1176.648 465.807l-268.996 268.996c-4.56 4.514-10.835 7.305-17.764 7.305s-13.2-2.792-17.765-7.305l0.002 0.002c-4.54-4.557-7.345-10.838-7.345-17.782 0-0.002 0-0.007 0-0.010v0.001c0.007-6.928 2.813-13.191 7.345-17.736l226.178-226.178h-1073.224c-13.851 0-25.080-11.229-25.080-25.080v0c0 0 0 0 0 0 0-13.862 11.222-25.107 25.080-25.137h1073.225l-226.179-226.122c-4.54-4.557-7.345-10.838-7.345-17.782 0-0.002 0-0.007 0-0.010v0.001c0-0.002 0-0.008 0-0.011 0-6.904 2.81-13.151 7.344-17.663l0.001-0.001c4.502-4.57 10.755-7.401 17.672-7.401 0.039 0 0.084 0 0.127 0.001h-0.007c0.011 0 0.030 0 0.047 0 6.911 0 13.163 2.81 17.685 7.345l268.996 268.996c4.542 4.557 7.354 10.846 7.354 17.792s-2.81 13.235-7.354 17.793l0.001-0.001z" />
<glyph unicode="&#xe90d;" glyph-name="search" horiz-adv-x="1020" d="M985.702 153.037l-168.55 168.55c31.109 59.363 49.891 129.487 51.194 203.873l0.006 0.415c0 239.761-194.364 434.125-434.125 434.125s-434.125-194.364-434.125-434.125c0-239.761 194.364-434.125 434.125-434.125v0c74.801 1.309 144.925 20.091 206.854 52.42l-2.566-1.22 168.55-168.55c22.526-23.609 54.234-38.289 89.37-38.289s66.843 14.679 89.324 38.24l0.046 0.049c21.315 23.513 34.361 54.864 34.361 89.262 0 34.452-13.087 65.847-34.562 89.485l0.098-0.11zM102.144 525.875c0 183.348 148.633 331.981 331.981 331.981s331.981-148.633 331.981-331.981c0-183.348-148.633-331.981-331.981-331.981v0c-0.198 0-0.432-0.001-0.666-0.001-182.98 0-331.315 148.335-331.315 331.315 0 0.234 0 0.468 0.001 0.702v-0.036z" />
<glyph unicode="&#xe90e;" glyph-name="allowance" horiz-adv-x="1380" d="M1298.842 744.414h-26.897v27.307c-0.078 44.633-36.258 80.789-80.892 80.828h-27.31v27.307c-0.421 44.116-36.091 79.763-80.177 80.145h-787.152c-44.624-0.039-80.789-36.203-80.828-80.824v-27.311h-27.307c-44.624-0.039-80.789-36.203-80.828-80.824v-27.311h-26.965c-44.624-0.039-80.789-36.203-80.828-80.824v-646.762c0.039-44.624 36.203-80.789 80.824-80.828h1218.018c44.638 0.039 80.818 36.195 80.896 80.82v646.765c-0.078 44.633-36.258 80.789-80.892 80.828h-0.004zM269.517 852.207v27.307c0 0.001 0 0.002 0 0.003 0 14.937 11.993 27.073 26.875 27.303h787.137c15.081 0 27.307-12.226 27.307-27.307v0-27.307zM161.655 771.379c0 15.081 12.226 27.307 27.307 27.307v0h1002.428c15.081 0 27.307-12.226 27.307-27.307v0-27.307h-1056.768zM1325.807 16.828c0-15.081-12.226-27.307-27.307-27.307v0h-1218.014c-14.904 0.231-26.897 12.367-26.897 27.304 0 0.001 0 0.002 0 0.003v0 646.758c0 0.001 0 0.002 0 0.003 0 14.937 11.993 27.073 26.875 27.303h1218.036c15.081 0 27.307-12.226 27.307-27.307v0zM1244.979 528.828c-44.624 0.039-80.789 36.203-80.828 80.824v0.004c0 15.081-12.226 27.307-27.307 27.307h-894.293c-15.081 0-27.307-12.226-27.307-27.307v0c-0.039-44.624-36.203-80.789-80.824-80.828h-0.004c-15.081 0-27.307-12.226-27.307-27.307v0-323.311c0-15.081 12.226-27.307 27.307-27.307v0c44.624-0.039 80.789-36.203 80.828-80.824v-0.004c0-15.081 12.226-27.307 27.307-27.307v0h894.293c15.081 0 27.307 12.226 27.307 27.307v0c0.039 44.624 36.203 80.789 80.824 80.828h0.004c15.081 0 27.307 12.226 27.307 27.307v323.311c0 15.081-12.226 27.307-27.307 27.307v0zM1040.179 340.207c-0.332-94.608-38.512-180.234-100.178-242.583l0.031 0.031h-82.33c77.308 53.903 127.26 142.394 127.26 242.551s-49.952 188.648-126.301 241.918l-0.959 0.634h82.466c61.877-61.88 100.148-147.364 100.148-241.787 0-0.269 0-0.537-0.001-0.806v0.042zM439.433 97.655c-61.889 62.159-100.15 147.887-100.15 242.551s38.261 180.392 100.162 242.564l-0.012-0.012h81.92c-41.105-28.78-73.956-66.637-96.094-110.795l-0.776-1.709c-1.742-3.466-2.761-7.553-2.761-11.878 0-14.872 12.056-26.928 26.928-26.928 10.547 0 19.677 6.063 24.096 14.894l0.071 0.156c40.191 80.544 121.999 134.895 216.502 134.895 133.203 0 241.186-107.983 241.186-241.186s-107.983-241.186-241.186-241.186c-94.502 0-176.31 54.351-215.87 133.5l-0.631 1.395c-4.489 8.986-13.62 15.049-24.166 15.049-14.872 0-26.928-12.056-26.928-26.928 0-4.325 1.020-8.412 2.832-12.034l-0.071 0.156c22.896-45.877 55.751-83.738 95.919-111.872l0.952-0.632zM161.382 202.786v274.842c52.94 11.2 93.931 52.191 104.974 104.247l0.157 0.884h101.376c-51.477-66.371-82.521-150.836-82.521-242.551s31.044-176.181 83.199-243.46l-0.677 0.908h-101.376c-11.2 52.94-52.191 93.931-104.247 104.974l-0.884 0.157zM1217.741 202.786c-52.92-11.207-93.889-52.199-104.906-104.248l-0.156-0.883h-101.581c51.335 66.445 82.383 150.845 82.671 242.485v0.066c0.001 0.339 0.002 0.739 0.002 1.14 0 91.336-31.033 175.423-83.129 242.294l0.662-0.882h101.376c11.173-52.932 52.142-93.923 104.178-104.973l0.884-0.157zM683.281 265.318c-0.010 0-0.021 0-0.032 0-4.948 0-9.427 2.009-12.665 5.256v0c-4.772 4.356-11.151 7.025-18.152 7.025-14.893 0-26.965-12.073-26.965-26.965 0-7.002 2.668-13.38 7.044-18.173l-0.019 0.021c8.223-8.299 18.472-14.576 29.944-18.029l0.503-0.13v-8.875c0.742-14.297 12.516-25.609 26.931-25.609s26.189 11.312 26.928 25.543l0.003 0.066v14.199c6.617 3.578 12.302 7.847 17.269 12.832l0.002 0.002c13.034 12.982 21.1 30.944 21.1 50.79s-8.065 37.808-21.097 50.788l-0.002 0.002-50.313 50.381c-3.25 3.249-5.261 7.739-5.261 12.698s2.010 9.448 5.261 12.698v0c3.197 3.246 7.639 5.257 12.552 5.257 0.051 0 0.102 0 0.154-0.001h-0.008c0.018 0 0.039 0 0.061 0 4.939 0 9.409-2.010 12.636-5.256l0.001-0.001c4.772-4.356 11.151-7.025 18.152-7.025 14.893 0 26.965 12.073 26.965 26.965 0 7.002-2.668 13.38-7.044 18.173l0.019-0.021c-8.239 8.256-18.483 14.507-29.941 17.96l-0.506 0.131v8.943c-0.742 14.297-12.516 25.609-26.931 25.609s-26.189-11.312-26.928-25.543l-0.003-0.066v-14.268c-22.997-12.282-38.381-36.123-38.381-63.558 0-19.835 8.041-37.791 21.041-50.788l50.381-50.381c3.25-3.249 5.261-7.739 5.261-12.698 0-9.916-8.038-17.954-17.954-17.954-0.001 0-0.003 0-0.004 0v0zM448.649 340.207c0.002 0.122 0.003 0.266 0.003 0.41 0 14.855-12.042 26.897-26.897 26.897-0.001 0-0.002 0-0.003 0v0c-15.081 0-27.307-12.226-27.307-27.307s12.226-27.307 27.307-27.307c15.081 0 27.307 12.226 27.307 27.307v0z" />
<glyph unicode="&#xe90f;" glyph-name="bonus" d="M874.212 810.041c-92.654 92.655-220.655 149.964-362.041 149.964-282.77 0-512-229.23-512-512s229.23-512 512-512c282.768 0 511.997 229.228 512 511.995v0c0.001 0.414 0.002 0.905 0.002 1.395 0 140.946-57.328 268.502-149.939 360.623l-0.022 0.022zM512.171-3.982c-249.598 0.032-451.925 202.379-451.925 451.982 0 249.623 202.359 451.982 451.982 451.982s451.982-202.359 451.982-451.982v0c-0.291-249.585-202.606-451.82-452.194-451.982h-0.016zM544.256 477.98h-64.284c-36.682 0-66.418 29.736-66.418 66.418s29.736 66.418 66.418 66.418h128.569c16.558 0 29.98 13.423 29.98 29.98s-13.423 29.98-29.98 29.98v0h-66.389v66.446c-0.719 16.017-13.879 28.73-30.009 28.73s-29.29-12.713-30.007-28.666l-0.002-0.065v-66.446h-2.162c-68.65-1.503-123.726-57.509-123.726-126.379s55.076-124.876 123.586-126.376l0.14-0.002h64.284c36.682 0 66.418-29.736 66.418-66.418s-29.736-66.418-66.418-66.418h-128.512c-16.558 0-29.98-13.423-29.98-29.98s13.423-29.98 29.98-29.98v0h66.389v-66.446c0.719-16.017 13.879-28.73 30.009-28.73s29.29 12.713 30.007 28.666l0.002 0.065v66.446h2.105c0.798-0.018 1.739-0.028 2.681-0.028 69.813 0 126.407 56.594 126.407 126.407s-56.594 126.407-126.407 126.407c-0.943 0-1.883-0.010-2.821-0.031l0.14 0.002z" />
<glyph unicode="&#xe910;" glyph-name="business_fee" horiz-adv-x="1383" d="M216.081 143.687h190.632c17.207 0 31.156 13.949 31.156 31.156s-13.949 31.156-31.156 31.156h-190.632c-17.207 0-31.156-13.949-31.156-31.156s13.949-31.156 31.156-31.156v0zM1260.292 960h-1138.084c-67.463-0.076-122.132-54.745-122.209-122.201v-307.341c0-17.207 13.949-31.156 31.156-31.156v0h1189.317c17.226 0 31.19 13.964 31.19 31.19s-13.964 31.19-31.19 31.19h-1158.161v131.139h1158.161c17.207 0 31.156 13.949 31.156 31.156s-13.949 31.156-31.156 31.156c0 0 0 0 0 0h-1158.161v82.659c0.076 33.049 26.847 59.819 59.888 59.896h1138.091c33.049-0.076 59.819-26.847 59.896-59.888v-779.59c-0.038-33.078-26.823-59.886-59.888-59.963h-1138.091c-33.072 0.076-59.857 26.885-59.896 59.959v341.382c0 17.207-13.949 31.156-31.156 31.156s-31.156-13.949-31.156-31.156c0 0 0 0 0 0v0-341.378c0.076-67.463 54.745-122.132 122.201-122.209h1138.091c67.463 0.076 122.132 54.745 122.209 122.201v779.59c-0.114 67.448-54.761 122.094-122.198 122.209h-0.011zM216.081 285.973h190.632c17.207 0 31.156 13.949 31.156 31.156s-13.949 31.156-31.156 31.156h-190.632c-17.207 0-31.156-13.949-31.156-31.156s13.949-31.156 31.156-31.156v0zM1118.007 180.484c-16.574-0.794-29.71-14.424-29.71-31.123s13.137-30.329 29.639-31.12l0.071-0.003c82.422 30.074 140.204 107.784 140.204 198.989 0 116.705-94.608 211.313-211.313 211.313s-211.313-94.608-211.313-211.313c0-91.206 57.782-168.916 138.736-198.52l1.468-0.469c70.593 0.168 127.754 57.434 127.754 128.050 0 21.461-5.28 41.69-14.611 59.457l0.336-0.702c8.359 4.133 18.2 6.55 28.606 6.55 36.201 0 65.567-29.262 65.737-65.422v-0.016c-0.038-36.23-29.379-65.594-65.596-65.67h-0.007zM1041.324 246.154c0-36.195-29.341-65.536-65.536-65.536s-65.536 29.341-65.536 65.536c0 36.195 29.341 65.536 65.536 65.536v0c36.211-0.076 65.536-29.449 65.536-65.67 0 0 0 0 0 0v0z" />
<glyph unicode="&#xe911;" glyph-name="clock" d="M512 960c-282.77 0-512-229.23-512-512s229.23-512 512-512c282.77 0 512 229.23 512 512v0c-0.349 282.629-229.37 511.65-511.966 512h-0.034zM512 9.387c-242.239 0-438.613 196.374-438.613 438.613s196.374 438.613 438.613 438.613c242.239 0 438.613-196.374 438.613-438.613v0c-0.272-242.13-196.483-438.342-438.587-438.613h-0.026zM775.305 456.533h-240.64v263.031c0.022 0.472 0.034 1.026 0.034 1.583 0 20.284-16.443 36.727-36.727 36.727s-36.727-16.443-36.727-36.727c0-0.557 0.012-1.111 0.037-1.661l-0.003 0.078v-299.691c0-20.284 16.443-36.727 36.727-36.727v0h277.299c19.591 0.871 35.144 16.966 35.144 36.693s-15.553 35.822-35.066 36.691l-0.078 0.003z" />
<glyph unicode="&#xe912;" glyph-name="educate" horiz-adv-x="1453" d="M1419.969 733.377l-303.238 102.467c-2.814 0.985-6.058 1.554-9.434 1.554-16.248 0-29.42-13.172-29.42-29.42 0-12.871 8.266-23.812 19.779-27.804l0.207-0.062 281.012-95.014-118.851-57.948c-5.18 3.085-11.168 5.615-17.508 7.278l-0.487 0.109-419.068 109.585c-11.131 43.505-49.981 75.152-96.223 75.152-54.774 0-99.177-44.403-99.177-99.177 0-0.123 0-0.246 0.001-0.369v0.019c0.454-34.066 28.176-61.508 62.308-61.508 0.096 0 0.193 0 0.289 0.001h73.176c0.149-0.001 0.324-0.002 0.5-0.002 21.103 0 39.742 10.547 50.935 26.657l0.134 0.204 367.498-96.088-420.881-205.203c-10.16-5.102-22.139-8.090-34.816-8.090s-24.656 2.987-35.273 8.296l0.457-0.207-617.354 301.022 626.755 211.85c7.585 2.608 16.324 4.113 25.415 4.113s17.831-1.506 25.983-4.281l-0.567 0.168 252.273-85.277c2.822-0.992 6.077-1.564 9.465-1.564 16.243 0 29.411 13.168 29.411 29.411 0 4.779-1.14 9.292-3.163 13.282l0.077-0.168c-3.468 6.985-9.475 12.271-16.785 14.713l-0.204 0.059-252.206 85.345c-13.211 4.594-28.437 7.247-44.284 7.247s-31.073-2.653-45.261-7.539l0.977 0.293-648.981-219.371c-19.606-6.807-33.428-25.122-33.428-46.665 0-19.32 11.116-36.043 27.301-44.123l0.285-0.129 327.143-159.475c-22.52-101.414-48.299-187.236-79.465-270.427l4.529 13.789c-3.605-9.44-5.693-20.358-5.693-31.764 0-29.133 13.622-55.084 34.843-71.832l0.194-0.147c93.751-73.16 203.057-131.988 321.483-170.641l7.54-2.129c26.554-8.776 57.121-13.838 88.87-13.838s62.315 5.062 90.937 14.423l-2.067-0.585c125.965 40.787 235.271 99.615 331.401 174.555l-2.378-1.785c21.388 16.947 34.986 42.92 34.986 72.070 0 11.37-2.069 22.257-5.851 32.305l0.209-0.632c-26.701 69.46-52.503 155.282-72.465 243.321l-2.539 13.317 138.727 67.55v-295.986c-27.548-5.97-47.891-30.113-47.943-59.017v-61.379c0.012-10.056 3.806-19.223 10.037-26.156l-0.032 0.036-7.588-114.554c-0.069-0.964-0.108-2.089-0.108-3.223 0-26.701 21.645-48.346 48.346-48.346 0.038 0 0.076 0 0.113 0h53.242c0.011 0 0.023 0 0.036 0 26.738 0 48.413 21.675 48.413 48.413 0 1.11-0.037 2.212-0.111 3.304l0.008-0.148-7.588 114.554c6.199 6.898 9.993 16.065 10.005 26.118v61.375c-0.052 28.91-20.395 53.053-47.545 58.95l-0.399 0.073v309.886c0 0.011 0 0.024 0 0.037 0 4.981-0.538 9.837-1.559 14.511l0.082-0.447 131.072 63.924c16.471 8.209 27.587 24.933 27.587 44.252 0 21.544-13.822 39.859-33.083 46.561l-0.346 0.105zM335.469 207.142l5.305 14.907c94.629-68.233 204.995-122.146 323.939-155.559l7.367-1.768c1.659-0.331 3.567-0.52 5.519-0.52 6.186 0 11.928 1.901 16.674 5.151l-0.101-0.065c7.784 5.413 12.816 14.313 12.816 24.388 0 6.156-1.878 11.873-5.093 16.609l0.066-0.104c-4.362 6.323-10.987 10.817-18.682 12.325l-0.187 0.031c-123.164 34.988-230.576 89.158-324.849 159.89l2.541-1.825c19.674 60.433 35.924 119.724 48.548 175.859l256.839-125.23c17.632-8.872 38.426-14.067 60.433-14.067s42.801 5.195 61.222 14.425l-0.79-0.358 256.839 125.163c12.557-56.135 28.941-115.158 48.548-175.792-91.699-69.004-199.132-123.168-315.421-156.319l-6.887-1.679c-13.699-2.75-23.875-14.685-23.875-28.996 0-1.928 0.185-3.812 0.537-5.637l-0.030 0.186c1.486-7.901 5.995-14.542 12.254-18.804l0.101-0.065c4.695-3.164 10.48-5.051 16.705-5.051 1.904 0 3.767 0.177 5.573 0.514l-0.187-0.029c126.307 35.165 236.674 89.056 334.416 159.389l-3.11-2.129 5.64-15.847c1.316-3.404 2.079-7.343 2.079-11.461 0-10.388-4.854-19.643-12.418-25.62l-0.069-0.052c-88.459-69.022-191.58-124.551-303.297-161.085l-7.126-2.017c-21.141-7.056-45.482-11.126-70.774-11.126s-49.633 4.071-72.403 11.593l1.63-0.466c-118.815 38.567-221.911 94.095-312.605 164.789l2.249-1.688c-7.548 6.118-12.333 15.388-12.333 25.777 0 4.455 0.88 8.704 2.475 12.583l-0.080-0.22zM1285.271 195.525v-42.034h-36.797l1.276 43.512h34.044c0.788-0.065 1.412-0.689 1.477-1.471v-0.006zM1282.249 0.797h-31.022l6.245 94.007h18.6zM766.959 722.298c0.034-0.245 0.054-0.528 0.054-0.816 0-1.299-0.396-2.505-1.075-3.504l0.014 0.022c-0.657-0.546-1.509-0.877-2.438-0.877-0.063 0-0.127 0.002-0.189 0.005h-73.182c-0.063-0.004-0.137-0.006-0.211-0.006-1.836 0-3.341 1.417-3.481 3.217l-0.001 0.012c0.004 11.525 4.846 21.918 12.605 29.259l0.019 0.018c7.040 6.79 16.625 10.983 27.189 11.012h0.006c5.552-0.013 10.835-1.148 15.641-3.188l-0.264 0.1c14.389-5.738 24.529-19.219 25.311-35.16l0.004-0.093z" />
<glyph unicode="&#xe913;" glyph-name="health_care" horiz-adv-x="831" d="M405.616 724.62h25.698c20.389 0.164 37.321 14.764 41.085 34.073l0.043 0.266c19.672 3.567 34.396 20.564 34.396 40.999 0 0.065 0 0.13 0 0.195v-0.010 25.642c-20.772 29.705-45.819 54.752-74.56 74.884l-0.964 0.64h-25.698c-29.676-20.807-54.716-45.847-74.882-74.56l-0.642-0.964v-25.642c20.807-29.676 45.847-54.716 74.56-74.882l0.964-0.642zM407.524 846.771v10.829h21.827v-10.829c0.032-12.65 10.294-22.893 22.949-22.893 0 0 0 0 0 0h10.773v-21.827h-10.773c0 0 0 0 0 0-12.655 0-22.917-10.243-22.949-22.89v-10.832h-21.827v10.773c0 0 0 0 0 0 0 12.655-10.243 22.917-22.89 22.949h-10.832v21.827h10.829c12.63 0.032 22.861 10.262 22.893 22.89v0.003zM717.249 294.933l-185.162 69.464c-2.040 0.827-3.466 2.764-3.535 5.041v61.729c44.018 30.74 74.725 77.934 83.235 132.479l0.144 1.118c36.435 5.837 63.939 37.046 63.939 74.678 0 36.832-26.346 67.51-61.22 74.217l-0.474 0.076v133.934c-0.058 30.148-15.958 56.569-39.816 71.389l-0.358 0.207-36.135 22.051c-18.642 11.59-41.264 18.46-65.492 18.46-0.055 0-0.11 0-0.165 0h-113.501c-0.042 0-0.091 0-0.14 0-24.233 0-46.861-6.87-66.043-18.769l0.535 0.309-36.135-22.051c-24.238-15.015-40.16-41.438-40.231-71.585v-133.608c-36.473-5.802-64.019-37.029-64.019-74.69 0-38.477 28.753-70.239 65.945-74.971l0.374-0.039c8.774-55.506 39.453-102.54 82.735-132.778l0.644-0.426v-61.721c-0.069-2.286-1.495-4.223-3.497-5.036l-0.038-0.013-185.162-69.464c-66.964-25.871-113.649-89.624-113.902-164.313v-91.322c0-12.070 9.785-21.855 21.855-21.855s21.855 9.785 21.855 21.855v0 91.29c0.205 56.108 35.243 103.98 84.607 123.132l0.904 0.309 47.861 17.899v-79.676c-25.875-9.298-44.046-33.622-44.046-62.191 0-36.411 29.517-65.929 65.929-65.929s65.929 29.517 65.929 65.929c0 28.569-18.171 52.893-43.586 62.047l-0.46 0.145v96.116l35.068-25.979c43.952-32.873 99.372-52.636 159.407-52.636s115.456 19.763 160.109 53.138l-0.702-0.502 35.068 25.979 12.344-4.601v-78.048c-37.779-6.063-66.312-38.369-66.434-77.362v-117.843c0.032-12.073 9.81-21.851 21.88-21.883h22.447c12.086 0 21.883 9.797 21.883 21.883s-9.797 21.883-21.883 21.883v0l-0.729 95.723c0.064 19.063 15.5 34.5 34.557 34.563h18.354c19.076-0.032 34.532-15.487 34.564-34.56v-95.726h-0.617c-12.086 0-21.883-9.797-21.883-21.883s9.797-21.883 21.883-21.883v0h22.444c12.073 0.032 21.851 9.81 21.883 21.88v117.833c-0.312 38.355-27.908 70.175-64.316 77.018l-0.49 0.077v61.721l35.798-13.41c50.291-19.444 85.353-67.321 85.567-123.415v-150.906h-743.733c0 12.070-9.785 21.855-21.855 21.855s-21.855-9.785-21.855-21.855v0-6.509c0 0 0 0 0 0 0-20.619 16.699-37.337 37.31-37.369h756.529c20.614 0.032 37.313 16.75 37.313 37.369v0 157.107c0 0.053 0 0.115 0 0.178 0 74.731-46.468 138.608-112.086 164.315l-1.199 0.414zM548.92 297.57c-36.763-27.536-83.134-44.092-133.372-44.092s-96.61 16.556-133.956 44.509l0.584-0.418-12.344 9.146 44.495 16.833c18.76 7.265 31.838 25.127 31.926 46.055v39.288c20.604-7.86 44.432-12.411 69.323-12.411s48.719 4.552 70.698 12.868l-1.374-0.456v-39.277c0.088-20.939 13.166-38.801 31.589-45.951l0.338-0.115 44.495-16.833-12.344-9.146zM334.918 715.082h-74.345v132.811c0.038 14.435 7.652 27.084 19.074 34.184l0.171 0.099 36.135 22.051c12.212 7.55 27.013 12.035 42.86 12.064h113.518c15.854-0.031 30.654-4.516 43.225-12.268l-0.357 0.205 36.135-22.051c11.593-7.199 19.207-19.848 19.246-34.277v-132.817h-176.24c-12.086 0-21.883-9.797-21.883-21.883s9.797-21.883 21.883-21.883v0h176.24v-76.59c0.018-0.878 0.028-1.912 0.028-2.949 0-85.621-69.41-155.031-155.031-155.031s-155.031 69.41-155.031 155.031c0 1.037 0.010 2.072 0.030 3.104l-0.002-0.155v76.59h74.345c12.086 0 21.883 9.797 21.883 21.883s-9.797 21.883-21.883 21.883v0zM614.288 610.942v57.344c10.753-5.257 18.028-16.115 18.028-28.672s-7.275-23.415-17.84-28.589l-0.188-0.083zM216.807 669.24v-59.196c-11.899 4.783-20.148 16.227-20.148 29.598s8.248 24.815 19.934 29.522l0.214 0.076zM221.184 130.083c0.001-0.083 0.002-0.182 0.002-0.281 0-12.395-10.048-22.444-22.444-22.444s-22.444 10.048-22.444 22.444c0 12.395 10.047 22.443 22.442 22.444v0c0.001 0 0.001 0 0.002 0 12.297 0 22.284-9.889 22.442-22.148v-0.015z" />
<glyph unicode="&#xe914;" glyph-name="insurance" horiz-adv-x="893" d="M885.185 747.681c-3.777 24.333-19.743 44.224-41.349 53.469l-0.453 0.172-370.323 153.348c-7.792 3.378-16.866 5.343-26.4 5.343s-18.608-1.965-26.841-5.512l0.441 0.169-370.323-153.348c-22.062-9.429-38.037-29.311-41.807-53.247l-0.051-0.394c-4.979-34.148-7.823-73.574-7.823-113.665 0-83.833 12.433-164.762 35.557-241.044l-1.531 5.875c27.786-91.147 69.562-170.371 123.496-239.664l-1.234 1.647c69.94-87.978 155.264-160.375 252.396-214.010l4.306-2.18c9.667-5.443 21.222-8.65 33.525-8.65s23.858 3.207 33.874 8.83l-0.349-0.18c101.431 55.794 186.741 128.194 255.333 214.48l1.312 1.71c52.746 67.636 94.543 146.863 120.947 232.828l1.372 5.189c21.48 70.202 33.847 150.894 33.847 234.475 0 40.336-2.881 80-8.447 118.796l0.522-4.437zM817.292 411.417c-59.255-187.703-187.622-338.913-354.528-426.779l-3.956-1.898c-3.531-2.009-7.757-3.192-12.26-3.192s-8.729 1.184-12.385 3.258l0.125-0.065c-170.865 89.778-299.243 240.98-357.138 423.553l-1.402 5.124c-20.409 66.618-32.161 143.191-32.161 222.51 0 37.845 2.675 75.066 7.847 111.482l-0.487-4.18c1.418 8.974 7.302 16.308 15.263 19.743l0.167 0.064 370.323 153.404c2.88 1.203 6.226 1.902 9.735 1.902s6.855-0.699 9.906-1.965l-0.171 0.063 370.323-153.404c8.141-3.48 14.034-10.824 15.412-19.662l0.019-0.144c4.744-32.398 7.453-69.801 7.453-107.836 0-79.128-11.724-155.519-33.53-227.528l1.445 5.552zM766.794 731.802l-144.819 59.196c-2.343 0.937-5.059 1.481-7.902 1.481-12.055 0-21.827-9.772-21.827-21.827 0-3.025 0.615-5.906 1.728-8.525l-0.054 0.143c2.276-5.342 6.47-9.5 11.695-11.674l0.144-0.053 144.819-59.027c5.032-2.123 8.698-6.606 9.637-12.024l0.014-0.095c3.746-25.349 5.886-54.609 5.886-84.369 0-62.278-9.37-122.369-26.776-178.937l1.14 4.304c-47.895-147.964-150.3-266.8-282.961-335.16l-3.198-1.498c-2.277-1.225-4.982-1.945-7.855-1.945s-5.579 0.72-7.945 1.989l0.090-0.044c-135.724 69.922-238.006 188.746-284.69 332.621l-1.133 4.037c-16.293 52.214-25.678 112.249-25.678 174.476 0 29.816 2.155 59.129 6.317 87.792l-0.389-3.266c0.932 5.522 4.605 10.014 9.546 12.081l0.105 0.039 297.381 121.421c1.86 0.77 4.020 1.217 6.284 1.217s4.424-0.447 6.396-1.258l-0.112 0.041 89.383-36.583c2.49-1.036 5.383-1.638 8.416-1.638s5.926 0.602 8.565 1.692l-0.149-0.055c5.359 2.278 9.522 6.496 11.675 11.751l0.052 0.144c1.001 2.422 1.583 5.234 1.583 8.182 0 9.084-5.521 16.878-13.39 20.211l-0.144 0.054-89.326 36.359c-6.725 2.85-14.545 4.506-22.752 4.506s-16.028-1.656-23.145-4.652l0.393 0.147-297.381-121.477c-19.104-7.904-32.982-24.965-36.259-45.56l-0.044-0.337c-4.036-27.268-6.341-58.742-6.341-90.754 0-66.844 10.049-131.34 28.718-192.062l-1.224 4.625c22.549-72.804 56.372-136.018 99.965-191.153l-0.932 1.222c56.644-70.209 125.643-127.908 204.065-170.444l3.54-1.757c8.329-4.665 18.278-7.412 28.868-7.412s20.539 2.747 29.172 7.568l-0.304-0.156c81.953 44.309 150.95 102.006 206.607 170.923l0.998 1.277c42.638 53.921 76.458 117.131 97.921 185.8l1.113 4.131c17.445 56.098 27.494 120.594 27.494 187.437 0 32.013-2.305 63.487-6.757 94.266l0.417-3.512c-3.333 21.081-17.356 38.251-36.243 45.979l-0.397 0.144zM417.063 261.716h58.915c0 0 0.001 0 0.002 0 24.87 0 45.056 20.049 45.279 44.867v65.333c0.029 0.845 0.721 1.519 1.57 1.519 0.040 0 0.079-0.001 0.118-0.004h65.812c0.017 0 0.037 0 0.057 0 24.858 0 45.032 20.056 45.223 44.87v58.484c-0.191 24.832-20.365 44.888-45.223 44.888-0.020 0-0.040 0-0.061 0h-65.533c-0.019-0.001-0.042-0.001-0.065-0.001-0.84 0-1.531 0.636-1.618 1.453l-0.001 0.007v65.368c-0.191 24.832-20.365 44.888-45.223 44.888-0.020 0-0.040 0-0.061 0h-58.912c0 0-0.001 0-0.001 0-24.858 0-45.032-20.056-45.223-44.87v-65.386c-0.088-0.824-0.779-1.46-1.619-1.46-0.023 0-0.045 0-0.068 0.001h-66.038c-0.017 0-0.037 0-0.057 0-24.858 0-45.032-20.056-45.223-44.87v-58.484c0-0.002 0-0.005 0-0.007 0-22.891 16.986-41.814 39.040-44.854l0.236-0.027c0.861-0.121 1.855-0.19 2.865-0.19 11.031 0 20.141 8.225 21.531 18.877l0.012 0.109c0.12 0.858 0.189 1.849 0.189 2.856 0 5.010-1.696 9.623-4.546 13.297l0.037-0.049c-3.501 4.432-8.568 7.493-14.354 8.346l-0.122 0.015c-0.758 0.082-1.351 0.694-1.402 1.454v58.415c0.031 0.875 0.747 1.572 1.626 1.572 0.020 0 0.040 0 0.060-0.001h65.814c0.017 0 0.037 0 0.057 0 24.858 0 45.032 20.056 45.223 44.87v65.386c0.031 0.844 0.722 1.516 1.57 1.516 0.020 0 0.040 0 0.060-0.001h58.912c0.018 0.001 0.039 0.001 0.060 0.001 0.86 0 1.563-0.667 1.623-1.511v-65.373c0.191-24.832 20.365-44.888 45.223-44.888 0.020 0 0.040 0 0.061 0h65.814c0.017 0.001 0.037 0.001 0.057 0.001 0.879 0 1.596-0.697 1.626-1.569v-58.413c-0.058-0.82-0.738-1.463-1.567-1.463-0.041 0-0.081 0.002-0.121 0.005h-65.475c-0.017 0-0.037 0-0.057 0-24.858 0-45.032-20.056-45.223-44.87v-65.33c-0.029-0.845-0.721-1.519-1.57-1.519-0.040 0-0.079 0.001-0.118 0.004h-58.91c-0.017-0.001-0.037-0.001-0.057-0.001-0.848 0-1.54 0.672-1.57 1.513v65.315c-0.191 24.832-20.365 44.888-45.223 44.888-0.020 0-0.040 0-0.061 0h0.003c-11.569-0.605-20.72-10.133-20.72-21.799s9.151-21.193 20.667-21.796l0.054-0.002c0.018 0.001 0.039 0.001 0.060 0.001 0.86 0 1.563-0.667 1.623-1.511v-65.317c0.408-24.577 20.334-44.365 44.926-44.551h0.018z" />
<glyph unicode="&#xe915;" glyph-name="laptop" horiz-adv-x="1332" d="M1332.019 31.573v0.41c0.022 0.367 0.034 0.797 0.034 1.229s-0.012 0.862-0.037 1.288l0.003-0.059-0.546 2.048v0.478l-0.751 1.707-104.38 205.824v677.205c-0.039 20.834-16.917 37.713-37.748 37.751h-1044.347c-20.834-0.039-37.713-16.917-37.751-37.748v-677.209l-104.38-205.824-0.751-1.707v-0.478l-0.614-2.048c0-0.751 0-1.502-0.341-2.253v-51.268c0 0 0 0 0 0 0-24.784 20.072-44.881 44.847-44.919h1242.457c24.779 0.039 44.851 20.135 44.851 44.919 0 0 0 0 0 0v0 50.654zM145.476 921.020h1041.067v-661.094h-1041.067zM137.967 220.877h1056.085l86.699-171.008h-428.715l-21.504 78.029c-4.301 15.824-18.524 27.274-35.427 27.307h-258.189c-16.898-0.057-31.109-11.496-35.37-27.048l-0.060-0.258-21.504-78.029h-428.715zM811.554 49.869h-291.157l18.227 66.014h254.703zM1293.039-19.081c0-3.242-2.629-5.871-5.871-5.871v0h-1242.453c0 0 0 0 0 0-3.205 0-5.803 2.598-5.803 5.803 0 0.024 0 0.048 0 0.072v-0.004 29.969h1253.99zM1125.444 557.978c-10.783 0-19.524-8.741-19.524-19.524v0-197.973h-879.752v197.973c0 10.783-8.741 19.524-19.524 19.524s-19.524-8.741-19.524-19.524v0-206.234c0 0 0 0 0 0 0-16.904 13.684-30.613 30.58-30.652h896.618c16.913 0.039 30.613 13.739 30.652 30.648v206.238c-0.039 10.767-8.757 19.486-19.521 19.524h-0.004zM1114.317 879.377h-896.614c-16.875-0.039-30.545-13.708-30.583-30.58v-206.306c0-10.783 8.741-19.524 19.524-19.524s19.524 8.741 19.524 19.524v0 197.973h879.752v-197.973c0-10.764 8.726-19.49 19.49-19.49s19.49 8.726 19.49 19.49v206.302c-0.039 16.875-13.708 30.545-30.58 30.583h-0.004z" />
<glyph unicode="&#xe916;" glyph-name="salary_increase" horiz-adv-x="891" d="M448.853 407.333c152.615 0 276.334 123.719 276.334 276.334s-123.719 276.334-276.334 276.334c-152.615 0-276.334-123.719-276.334-276.334v0c0.167-152.548 123.786-276.167 276.318-276.334h0.016zM214.796 683.666c0 129.266 104.791 234.057 234.057 234.057s234.057-104.791 234.057-234.057c0-129.266-104.791-234.057-234.057-234.057v0c-129.245 0.028-234.008 104.808-234.008 234.057v0zM448.853 482.036c111.328 0.039 201.563 90.297 201.563 201.63 0 111.357-90.273 201.63-201.63 201.63-52.169 0-99.71-19.813-135.51-52.324l0.166 0.149c-4.247-3.892-6.9-9.464-6.9-15.656 0-5.487 2.083-10.487 5.502-14.253l-0.016 0.018c3.635-4.053 8.803-6.666 14.584-6.923l0.044-0.002c0.323-0.018 0.7-0.028 1.081-0.028 5.47 0 10.453 2.085 14.198 5.504l-0.016-0.015c28.094 25.493 65.566 41.098 106.682 41.098 87.82 0 159.013-71.192 159.013-159.013s-71.192-159.013-159.013-159.013c-87.82 0-159.013 71.192-159.013 159.013 0 27.774 7.121 53.884 19.636 76.606l-0.415-0.822c1.621 2.927 2.576 6.417 2.576 10.131 0 2.142-0.318 4.21-0.908 6.16l0.039-0.15c-2.628 8.91-10.735 15.303-20.335 15.303-8.043 0-15.039-4.487-18.619-11.095l-0.055-0.112c-15.307-27.751-24.314-60.83-24.314-96.012 0-111.353 90.223-201.634 201.554-201.728h0.009zM443.636 620.276c-19.505 1.219-24.381 12.386-25.21 14.092-2.451 9.177-10.689 15.825-20.48 15.825-11.689 0-21.165-9.476-21.165-21.165 0-1.898 0.25-3.737 0.718-5.487l-0.034 0.148c0.247-1.077 0.548-2.005 0.921-2.896l-0.043 0.117c7.792-20.037 24.619-35.032 45.339-40.135l0.448-0.093v-14.629c0-11.688 9.475-21.163 21.163-21.163s21.163 9.475 21.163 21.163v0 14.19c10.789 2.586 20.139 7.691 27.742 14.67l-0.045-0.041c12.185 11.805 19.749 28.319 19.749 46.6 0 0.074 0 0.149 0 0.223v-0.012c0 13.019-4.876 56.174-66.17 63-7.302 0.069-13.894 3.056-18.675 7.85l-0.001 0.001c-1.806 2.359-2.914 5.335-2.974 8.568v0.014c-0.036 0.426-0.057 0.922-0.057 1.422 0 9.857 7.99 17.847 17.847 17.847 0.501 0 0.996-0.021 1.486-0.061l-0.064 0.004c0.419 0.030 0.907 0.048 1.4 0.048 6.904 0 13.013-3.4 16.746-8.616l0.042-0.062c3.157-8 10.821-13.558 19.782-13.558 11.715 0 21.211 9.497 21.211 21.211 0 3.525-0.86 6.849-2.381 9.775l0.056-0.118c-7.421 14.403-20.014 25.266-35.264 30.257l-0.43 0.122v15.116c0 11.688-9.475 21.163-21.163 21.163s-21.163-9.475-21.163-21.163v0-15.067c-23.715-8.655-40.339-31.015-40.339-57.258 0-0.442 0.005-0.882 0.014-1.322l-0.001 0.066c0.574-32.357 26.873-58.382 59.282-58.514h0.013c28.477-3.17 28.477-15.604 28.477-20.919 0-0.015 0-0.033 0-0.051 0-6.203-2.433-11.837-6.397-16.001l0.009 0.010c-4.581-3.496-10.386-5.601-16.683-5.601-1.721 0-3.405 0.157-5.039 0.458l0.17-0.026zM201.582 270.653c-3.97 3.884-9.41 6.281-15.409 6.281s-11.439-2.397-15.413-6.285l0.004 0.004-100.84-107.276c-3.567-3.786-5.759-8.903-5.759-14.531 0-11.699 9.472-21.187 21.166-21.211h22.823v-47.543c0-11.688 9.475-21.163 21.163-21.163s21.163 9.475 21.163 21.163v0 68.754c0 0.001 0 0.003 0 0.004 0 10.081-7.049 18.516-16.486 20.644l-0.141 0.027 52.322 55.637 52.322-55.637c-9.579-2.156-16.628-10.59-16.628-20.671 0-0.001 0-0.003 0-0.004v0-170.667h-71.387v42.472c0 11.688-9.475 21.163-21.163 21.163s-21.163-9.475-21.163-21.163v0-63.683c0-11.688 9.475-21.163 21.163-21.163v0h113.713c11.688 0 21.163 9.475 21.163 21.163v0 170.667h22.821c11.696 0.025 21.168 9.512 21.168 21.211 0 5.628-2.192 10.745-5.769 14.542l0.010-0.011zM464.262 372.809c-3.957 3.893-9.39 6.296-15.384 6.296s-11.427-2.404-15.387-6.299l0.003 0.003-100.84-107.276c-3.578-3.782-5.777-8.9-5.777-14.531 0-11.688 9.475-21.163 21.163-21.163 0.008 0 0.017 0 0.025 0h22.819v-272.725c0-11.688 9.475-21.163 21.163-21.163v0h113.664c11.688 0 21.163 9.475 21.163 21.163v0 272.725h22.821c0.007 0 0.015 0 0.023 0 11.688 0 21.163 9.475 21.163 21.163 0 5.632-2.2 10.749-5.787 14.541l0.009-0.010zM396.532 271.774l52.322 55.589 52.322-55.589c-9.582-2.175-16.628-10.62-16.628-20.71 0-0.005 0-0.010 0-0.014v0.001-272.677h-71.339v272.677c-0.018 10.102-7.079 18.55-16.534 20.697l-0.142 0.027zM726.991 467.261c-3.949 3.93-9.395 6.36-15.409 6.36s-11.459-2.43-15.41-6.361l0.001 0.001-100.84-107.276c-3.55-3.776-5.731-8.874-5.731-14.482 0-11.68 9.462-21.15 21.139-21.163h22.822v-84.309c0-11.688 9.475-21.163 21.163-21.163s21.163 9.475 21.163 21.163v0 105.472c-0.017 10.076-7.057 18.503-16.486 20.648l-0.142 0.027 52.322 55.589 52.322-55.589c-9.571-2.172-16.611-10.599-16.628-20.673v-367.179h-71.387v202.362c0 11.688-9.475 21.163-21.163 21.163s-21.163-9.475-21.163-21.163v0-223.573c0-11.688 9.475-21.163 21.163-21.163v0h113.713c11.688 0 21.163 9.475 21.163 21.163v0 367.226h22.821c11.678 0.013 21.14 9.483 21.14 21.163 0 5.608-2.181 10.706-5.742 14.493l0.010-0.011zM129.365 678.351c-0.028 11.677-9.486 21.135-21.16 21.163h-87.043c-11.688 0-21.163-9.475-21.163-21.163s9.475-21.163 21.163-21.163h87.040c11.688 0 21.163 9.475 21.163 21.163v0zM125.123 567.759l-31.013-12.142c-7.888-3.21-13.348-10.818-13.348-19.7 0-11.676 9.434-21.149 21.095-21.211h0.006c0.006 0 0.013 0 0.021 0 2.771 0 5.412 0.556 7.818 1.561l-0.134-0.050 30.964 12.142c5.27 2.034 9.407 6.013 11.602 11.034l0.052 0.133c1.131 2.507 1.79 5.435 1.79 8.517 0 11.688-9.475 21.163-21.163 21.163-2.767 0-5.41-0.531-7.833-1.497l0.143 0.050zM94.11 801.085l31.013-12.093c2.284-0.921 4.932-1.455 7.704-1.455 11.67 0 21.13 9.46 21.13 21.13 0 8.897-5.499 16.51-13.283 19.625l-0.142 0.050-30.964 12.142c-2.287 0.922-4.939 1.457-7.715 1.457-8.894 0-16.507-5.487-19.638-13.261l-0.051-0.142c-0.914-2.284-1.444-4.931-1.444-7.703 0-8.908 5.478-16.536 13.249-19.699l0.142-0.051zM869.912 699.514h-87.040c-11.688 0-21.163-9.475-21.163-21.163s9.475-21.163 21.163-21.163h87.040c11.688 0 21.163 9.475 21.163 21.163s-9.475 21.163-21.163 21.163v0zM750.299 528.36l30.964-12.142c2.272-0.956 4.913-1.512 7.684-1.512 0.007 0 0.014 0 0.022 0h-0.001c11.647 0.090 21.053 9.552 21.053 21.211 0 8.883-5.46 16.49-13.207 19.649l-0.142 0.051-30.964 12.142c-2.275 0.909-4.911 1.436-7.671 1.436-8.914 0-16.544-5.498-19.682-13.289l-0.051-0.143c-0.918-2.282-1.45-4.928-1.45-7.699 0-8.91 5.507-16.535 13.303-19.655l0.143-0.050zM757.76 787.529c2.774 0.004 5.421 0.54 7.847 1.513l-0.142-0.050 30.964 12.093c7.936 3.204 13.433 10.844 13.433 19.767 0 2.765-0.528 5.407-1.488 7.83l0.050-0.144c-3.181 7.916-10.794 13.403-19.689 13.403-2.777 0-5.428-0.535-7.858-1.507l0.143 0.050-30.964-12.142c-7.939-3.171-13.445-10.795-13.445-19.705 0-2.77 0.532-5.417 1.5-7.842l-0.050 0.143c3.134-7.914 10.721-13.41 19.592-13.41 0.038 0 0.076 0 0.114 0h-0.006z" />
<glyph unicode="&#xe917;" glyph-name="seniority_allowances" horiz-adv-x="1380" d="M1298.842 744.414h-26.897v27.307c-0.078 44.633-36.258 80.789-80.892 80.828h-27.31v27.307c-0.421 44.116-36.091 79.763-80.177 80.145h-787.152c-44.624-0.039-80.789-36.203-80.828-80.824v-27.311h-27.307c-44.624-0.039-80.789-36.203-80.828-80.824v-27.311h-26.965c-44.624-0.039-80.789-36.203-80.828-80.824v-646.762c0.039-44.624 36.203-80.789 80.824-80.828h1218.018c44.638 0.039 80.818 36.195 80.896 80.82v646.765c-0.078 44.633-36.258 80.789-80.892 80.828h-0.004zM269.517 852.207v27.307c0 0.001 0 0.002 0 0.003 0 14.937 11.993 27.073 26.875 27.303h787.137c15.081 0 27.307-12.226 27.307-27.307v0-27.307zM161.655 771.379c0 15.081 12.226 27.307 27.307 27.307v0h1002.428c15.081 0 27.307-12.226 27.307-27.307v0-27.307h-1056.768zM1325.807 16.828c0-15.081-12.226-27.307-27.307-27.307v0h-1218.014c-14.904 0.231-26.897 12.367-26.897 27.304 0 0.001 0 0.002 0 0.003v0 646.758c0 0.001 0 0.002 0 0.003 0 14.937 11.993 27.073 26.875 27.303h1218.036c15.081 0 27.307-12.226 27.307-27.307v0zM1244.979 528.828c-44.624 0.039-80.789 36.203-80.828 80.824v0.004c0 15.081-12.226 27.307-27.307 27.307h-894.293c-15.081 0-27.307-12.226-27.307-27.307v0c-0.039-44.624-36.203-80.789-80.824-80.828h-0.004c-15.081 0-27.307-12.226-27.307-27.307v0-323.311c0-15.081 12.226-27.307 27.307-27.307v0c44.624-0.039 80.789-36.203 80.828-80.824v-0.004c0-15.081 12.226-27.307 27.307-27.307v0h894.293c15.081 0 27.307 12.226 27.307 27.307v0c0.039 44.624 36.203 80.789 80.824 80.828h0.004c15.081 0 27.307 12.226 27.307 27.307v323.311c0 15.081-12.226 27.307-27.307 27.307v0zM1040.179 340.207c-0.332-94.608-38.512-180.234-100.178-242.583l0.031 0.031h-82.33c77.308 53.903 127.26 142.394 127.26 242.551s-49.952 188.648-126.301 241.918l-0.959 0.634h82.466c61.877-61.88 100.148-147.364 100.148-241.787 0-0.269 0-0.537-0.001-0.806v0.042zM439.433 97.655c-61.889 62.159-100.15 147.887-100.15 242.551s38.261 180.392 100.162 242.564l-0.012-0.012h81.92c-41.105-28.78-73.956-66.637-96.094-110.795l-0.776-1.709c-1.742-3.466-2.761-7.553-2.761-11.878 0-14.872 12.056-26.928 26.928-26.928 10.547 0 19.677 6.063 24.096 14.894l0.071 0.156c40.191 80.544 121.999 134.895 216.502 134.895 133.203 0 241.186-107.983 241.186-241.186s-107.983-241.186-241.186-241.186c-94.502 0-176.31 54.351-215.87 133.5l-0.631 1.395c-4.489 8.986-13.62 15.049-24.166 15.049-14.872 0-26.928-12.056-26.928-26.928 0-4.325 1.020-8.412 2.832-12.034l-0.071 0.156c22.896-45.877 55.751-83.738 95.919-111.872l0.952-0.632zM161.382 202.786v274.842c52.94 11.2 93.931 52.191 104.974 104.247l0.157 0.884h101.376c-51.477-66.371-82.521-150.836-82.521-242.551s31.044-176.181 83.199-243.46l-0.677 0.908h-101.376c-11.2 52.94-52.191 93.931-104.247 104.974l-0.884 0.157zM1217.741 202.786c-52.92-11.207-93.889-52.199-104.906-104.248l-0.156-0.883h-101.581c51.335 66.445 82.383 150.845 82.671 242.485v0.066c0.001 0.339 0.002 0.739 0.002 1.14 0 91.336-31.033 175.423-83.129 242.294l0.662-0.882h101.376c11.173-52.932 52.142-93.923 104.178-104.973l0.884-0.157zM683.281 265.318c-0.010 0-0.021 0-0.032 0-4.948 0-9.427 2.009-12.665 5.256v0c-4.772 4.356-11.151 7.025-18.152 7.025-14.893 0-26.965-12.073-26.965-26.965 0-7.002 2.668-13.38 7.044-18.173l-0.019 0.021c8.223-8.299 18.472-14.576 29.944-18.029l0.503-0.13v-8.875c0.742-14.297 12.516-25.609 26.931-25.609s26.189 11.312 26.928 25.543l0.003 0.066v14.199c6.617 3.578 12.302 7.847 17.269 12.832l0.002 0.002c13.034 12.982 21.1 30.944 21.1 50.79s-8.065 37.808-21.097 50.788l-0.002 0.002-50.313 50.381c-3.25 3.249-5.261 7.739-5.261 12.698s2.010 9.448 5.261 12.698v0c3.197 3.246 7.639 5.257 12.552 5.257 0.051 0 0.102 0 0.154-0.001h-0.008c0.018 0 0.039 0 0.061 0 4.939 0 9.409-2.010 12.636-5.256l0.001-0.001c4.772-4.356 11.151-7.025 18.152-7.025 14.893 0 26.965 12.073 26.965 26.965 0 7.002-2.668 13.38-7.044 18.173l0.019-0.021c-8.239 8.256-18.483 14.507-29.941 17.96l-0.506 0.131v8.943c-0.742 14.297-12.516 25.609-26.931 25.609s-26.189-11.312-26.928-25.543l-0.003-0.066v-14.268c-22.997-12.282-38.381-36.123-38.381-63.558 0-19.835 8.041-37.791 21.041-50.788l50.381-50.381c3.25-3.249 5.261-7.739 5.261-12.698 0-9.916-8.038-17.954-17.954-17.954-0.001 0-0.003 0-0.004 0v0zM448.649 340.207c0.002 0.122 0.003 0.266 0.003 0.41 0 14.855-12.042 26.897-26.897 26.897-0.001 0-0.002 0-0.003 0v0c-15.081 0-27.307-12.226-27.307-27.307s12.226-27.307 27.307-27.307c15.081 0 27.307 12.226 27.307 27.307v0z" />
<glyph unicode="&#xe918;" glyph-name="travel" horiz-adv-x="1585" d="M69.184 382.208l445.632-61.504-217.6-316.416c-2.926-4.214-4.674-9.437-4.674-15.068 0-12.409 8.49-22.836 19.978-25.788l0.185-0.040 106.432-26.624c1.919-0.492 4.121-0.774 6.39-0.774 6.818 0 13.041 2.551 17.765 6.75l378.917 336.808 211.904-19.2c27.2-2.432 61.248-3.648 96.384-3.648 1.96-0.011 4.28-0.017 6.601-0.017 50.705 0 100.742 2.866 149.955 8.444l-6.028-0.555 70.4 8.768c53.22 6.767 101.567 20.393 146.639 40.113l-3.407-1.329 50.56 21.696c23.424 10.2 39.504 33.147 39.504 59.849 0 23.88-12.86 44.757-32.033 56.082l-0.303 0.166-153.6 89.6c-65.278 38.696-143.888 61.565-227.84 61.568h-200.832l-308.096 349.824c-5.119 5.515-12.391 8.971-20.47 9.024h-0.010l-109.632-1.984c-14.504-0.259-26.163-12.078-26.163-26.62 0-3.967 0.868-7.731 2.423-11.114l-0.068 0.166 142.848-319.296h-368.192l-125.504 251.328c-4.468 8.797-13.45 14.72-23.815 14.72-0.043 0-0.085 0-0.128 0h-106.425c-14.693-0.015-26.598-11.929-26.598-26.624 0-1.537 0.13-3.044 0.38-4.509l-0.022 0.157 49.92-299.84-5.952-3.072c-26.448-13.474-44.248-40.501-44.248-71.686 0-40.369 29.83-73.772 68.65-79.368l0.43-0.051zM418.496-8.192l-55.616 13.888 262.4 381.312 216-19.648-36.8-32.704-3.648 0.384v-3.84zM572.864 905.536l57.088 1.024 268.8-305.472h-189.952zM106.048 525.696l-48 288h58.496l125.696-251.328c4.416-8.792 13.364-14.72 23.696-14.72 0.039 0 0.079 0 0.118 0h904.634c71.823-0.024 139.205-19.013 197.418-52.231l-1.962 1.031 8.32-16.576-23.808-11.904h-100.16v-53.184h106.432c0.077-0.001 0.168-0.001 0.258-0.001 4.239 0 8.245 0.993 11.8 2.759l-0.155-0.069 53.184 26.56c5.335 2.814 9.498 7.245 11.901 12.633l0.067 0.167 91.584-53.44c3.597-2.109 5.973-5.956 5.973-10.358 0-0.251-0.008-0.5-0.023-0.747l0.002 0.034c-0.308-4.597-3.197-8.451-7.218-10.147l-0.078-0.029-50.496-21.696c-37.485-16.516-80.986-28.788-126.487-34.689l-2.409-0.255-70.4-8.768c-41.952-4.733-90.581-7.433-139.841-7.433-33.624 0-66.955 1.258-99.948 3.73l4.397-0.265-162.304 14.72 45.376 40.384c5.687 4.911 9.265 12.131 9.265 20.186 0 13.933-10.702 25.366-24.334 26.527l-0.098 0.007-292.672 26.624c-0.709 0.067-1.533 0.105-2.367 0.105-9.075 0-17.089-4.54-21.896-11.473l-0.058-0.088-41.408-60.416-472.128 65.216c-13.439 1.69-23.731 13.047-23.731 26.808 0 10.702 6.224 19.95 15.25 24.321l0.161 0.070 23.552 11.776c8.785 4.507 14.691 13.503 14.691 23.879 0 1.534-0.129 3.039-0.377 4.503l0.022-0.158zM345.856 521.344h53.184v-53.184h-53.184zM452.288 521.344h53.184v-53.184h-53.184zM558.72 521.344h53.184v-53.184h-53.184zM665.152 521.344h53.184v-53.184h-53.184zM771.584 521.344h53.184v-53.184h-53.184zM878.016 521.344h53.184v-53.184h-53.184zM984.448 521.344h53.184v-53.184h-53.184z" />
<glyph unicode="&#xe919;" glyph-name="uniform" d="M975.858 819.838l-215.405 69.8c-5.297 1.897-11.409 3.005-17.776 3.030h-0.011l-43.373 57.793c-2.987 3.942-7.119 6.875-11.898 8.317l-0.165 0.043v1.178h-350.685v-0.786c-4.95-1.53-9.080-4.499-12.020-8.412l-0.044-0.061-43.317-57.793c-0.035 0-0.075 0-0.116 0-6.162 0-12.083-1.027-17.603-2.919l0.382 0.114-217.032-70.418c-27.703-11.134-46.906-37.776-46.908-68.902v0-268.821c0 0 0 0 0 0 0-13.181 10.67-23.871 23.844-23.903h144.485v-497.973c0-13.17 10.676-23.847 23.847-23.847v0h639.649c13.17 0 23.847 10.676 23.847 23.847v0 497.973h144.482c13.177 0.032 23.847 10.721 23.847 23.903 0 0 0 0 0 0v0 268.821c-0.226 31.396-19.877 58.145-47.522 68.842l-0.508 0.173zM807.529 606.622v-622.816h-591.956v622.816h-47.693v-100.997h-120.636v245.143c-0.002 0.115-0.003 0.251-0.003 0.388 0 10.468 6.246 19.478 15.214 23.506l0.163 0.065 215.854 69.969c0.807 0.25 1.734 0.393 2.695 0.393 0.039 0 0.078 0 0.117-0.001h2.407l144.707-128.659c4.239-3.693 9.817-5.945 15.922-5.945 3.302 0 6.45 0.659 9.32 1.852l-0.161-0.059-16.272-617.205c-0.005-0.178-0.008-0.388-0.008-0.598 0-6.589 2.685-12.55 7.020-16.85l50.501-50.501c4.325-4.271 10.271-6.91 16.833-6.91s12.508 2.638 16.835 6.912l50.497 50.497c4.337 4.302 7.023 10.264 7.023 16.853 0 0.23-0.003 0.458-0.010 0.686l0.001-0.034-16.272 617.205c2.724-1.168 5.895-1.847 9.224-1.847 6.093 0 11.655 2.274 15.883 6.020l-0.025-0.022 144.707 128.659h2.413c0.019 0 0.041 0 0.064 0 1.087 0 2.126-0.206 3.079-0.581l-0.057 0.020 214.226-69.295c9.924-3.843 16.834-13.311 16.834-24.393 0-0.064 0-0.128-0.001-0.192v0.010-245.031h-120.636v100.997zM579.836 767.095l-32.6 32.544 128.379 102.681 22.444-30.131zM485.18 104.217l15.935 605.984h20.873l15.991-605.984-26.428-26.372zM502.012 758.118l9.707 9.651 9.707-9.651zM612.1 912.419l-100.38-80.237-100.324 80.237zM325.155 872.188l22.444 30.131 128.267-102.681-32.544-32.544z" />
<glyph unicode="&#xe91a;" glyph-name="vacation_mode" horiz-adv-x="1136" d="M1071.943 792.131h-234.143v66.207c-0.152 56.061-45.538 101.471-101.576 101.661h-335.756c-56.1-0.114-101.547-45.561-101.661-101.65v-66.218h-234.076c-35.525-0.038-64.318-28.808-64.394-64.32v-415.315c0.21-25.624 15.247-47.687 36.943-58.049l0.391-0.168v-253.952c0.038-35.512 28.816-64.289 64.324-64.327h932.616c35.512 0.038 64.289 28.816 64.327 64.324v253.956c22.096 10.552 37.134 32.638 37.334 58.258v415.266c-0.038 35.512-28.816 64.289-64.324 64.327h-0.004zM709.347 831.278v-39.147h-282.020v39.147zM736.206 885.399h-335.738c-14.834 0-26.859-12.025-26.859-26.859v-66.207h-20.547v66.207c0.038 26.264 21.338 47.54 47.608 47.54 0 0 0 0 0 0h335.738c26.241-0.038 47.502-21.3 47.54-47.537v-66.211h-20.547v66.207c0 0.001 0 0.001 0 0.002 0 14.834-12.025 26.859-26.859 26.859-0.118 0-0.236-0.001-0.354-0.002h0.018zM586.937 325.859h-37.267c-35.525-0.038-64.318-28.808-64.394-64.32v-17.331l-422.022 58.217c-4.998 0.717-8.796 4.969-8.796 10.109 0 0.011 0 0.022 0 0.032v-0.002 415.24c0 0 0 0 0 0 0 5.637 4.57 10.206 10.206 10.206 0.024 0 0.047 0 0.071 0h1007.209c5.637 0 10.206-4.57 10.206-10.206v0-415.24c-0.014-5.141-3.803-9.393-8.74-10.132l-0.056-0.007-422.022-58.217v17.324c-0.076 35.544-28.907 64.328-64.461 64.328-0.095 0-0.189 0-0.283-0.001h0.015zM597.21 149.596c0 0 0 0 0 0 0-5.687-4.592-10.302-10.27-10.34h-37.271c0 0 0 0 0 0-5.674 0-10.274 4.6-10.274 10.274 0 0.024 0 0.047 0 0.071v-0.004 111.935c0 0 0 0 0 0 0 5.637 4.57 10.206 10.206 10.206 0.024 0 0.047 0 0.071 0h37.263c0 0 0 0 0 0 5.65 0 10.235-4.561 10.273-10.203v-0.004zM91.724 243.603l393.552-54.322v-39.953c0.076-35.52 28.869-64.289 64.391-64.327h37.271c35.541 0 64.356 28.792 64.394 64.324v39.957l393.552 54.322v-243.544c-0.038-5.645-4.623-10.206-10.273-10.206 0 0 0 0 0 0h-932.948c0 0 0 0 0 0-5.65 0-10.235 4.561-10.273 10.203v0.004z" />
<glyph unicode="&#xe91b;" glyph-name="wage" d="M873.813 809.813c-92.215 91.816-219.395 148.578-359.833 148.578-281.676 0-510.020-228.344-510.020-510.020s228.344-510.020 510.020-510.020c281.546 0 509.809 228.132 510.020 509.629v0.020c0.001 0.312 0.001 0.682 0.001 1.052 0 141.024-57.421 268.637-150.159 360.733l-0.029 0.029zM512-3.789c-249.629 0-451.994 202.364-451.994 451.994s202.364 451.994 451.994 451.994c249.629 0 451.994-202.364 451.994-451.994v0c-0.311-249.504-202.489-451.683-451.964-451.994h-0.030zM512 838.007c-215.395 0-390.007-174.612-390.007-390.007s174.612-390.007 390.007-390.007c215.395 0 390.007 174.612 390.007 390.007v0c-0.233 215.301-174.706 389.774-389.985 390.007h-0.023zM512 117.999c-182.255 0-330.001 147.747-330.001 330.001s147.747 330.001 330.001 330.001c182.255 0 330.001-147.747 330.001-330.001v0c-0.233-182.161-147.84-329.768-329.979-330.001h-0.022zM602.044 538.249c0-16.57 13.433-30.003 30.003-30.003s30.003 13.433 30.003 30.003v0c-1.016 36.21-19.276 67.952-46.825 87.422l-0.347 0.233c-20.445 15.104-45.115 25.707-71.918 29.852l-0.923 0.117v32.427c0 16.57-13.433 30.003-30.003 30.003s-30.003-13.433-30.003-30.003v0-32.427c-27.726-4.262-52.396-14.865-73.292-30.287l0.451 0.318c-28.575-19.081-47.142-51.2-47.142-87.654s18.567-68.573 46.76-87.414l0.382-0.24c20.445-15.104 45.115-25.707 71.918-29.852l0.923-0.117v-118.852c-34.543 8.465-60.006 30.857-60.006 56.457 0 16.57-13.433 30.003-30.003 30.003s-30.003-13.433-30.003-30.003v0c1.016-36.21 19.276-67.952 46.825-87.422l0.347-0.233c20.445-15.104 45.115-25.707 71.918-29.852l0.923-0.117v-32.7c0-16.57 13.433-30.003 30.003-30.003s30.003 13.433 30.003 30.003v0 32.7c27.726 4.262 52.396 14.865 73.292 30.287l-0.451-0.318c28.575 19.081 47.142 51.2 47.142 87.654s-18.567 68.573-46.76 87.414l-0.382 0.24c-20.445 15.104-45.115 25.707-71.918 29.852l-0.923 0.117v118.852c34.543-8.465 60.006-30.857 60.006-56.457zM422.025 538.249c0 25.532 25.463 47.787 60.006 56.457v-112.845c-34.543 8.465-60.006 30.857-60.006 56.388zM602.044 358.229c0-25.532-25.463-47.787-60.006-56.457v112.845c34.543-8.465 60.006-30.857 60.006-56.457z" />
<glyph unicode="&#xe91c;" glyph-name="facebook2" d="M682.003 959.716c17.626-1.137 35.252-2.843 52.877-3.98 10.803-1.137 21.606-2.274 32.977-2.843 0-54.583 0-108.029 0-163.18-4.549 0-8.529 0-13.077 0-34.683-0.569-69.366 0.569-104.049-2.274-36.957-2.843-59.132-22.174-61.406-59.132-3.411-50.603-0.569-101.206-0.569-152.946 54.014 0 108.029 0 163.749 0-7.391-61.406-15.351-121.106-22.743-181.943-47.192 0-94.383 0-142.712 0 0-152.946 0-304.755 0-457.701-61.406 0-121.675 0-182.512 0 0 152.378 0 304.187 0 457.133-49.466 0-98.363 0-147.829 0 0 60.837 0 121.106 0 181.943 48.329 0 97.226 0 147.829 0 0 4.549 0 8.529 0 12.509 0.569 53.446-1.137 107.46 1.706 160.906 3.411 63.112 25.017 118.832 74.483 161.475 33.546 28.429 72.777 42.074 115.42 47.76 3.411 0.569 6.254 1.137 9.666 2.274 25.586 0 50.603 0 76.189 0z" />
<glyph unicode="&#xe91d;" glyph-name="instagram2" d="M233.891 959.858c185.406 0 370.244 0 555.65 0 2.844-0.569 5.119-1.706 7.962-1.706 59.148-6.825 109.765-30.711 151.851-72.798 50.617-50.617 73.935-112.609 74.504-183.7 0-168.913 0-337.826 0-506.739 0-10.237-0.569-20.474-1.706-30.711-12.512-126.827-118.865-226.355-245.692-227.492-176.307-1.137-352.613-1.137-528.351 0-105.215 0.569-200.193 71.091-233.18 171.757-6.825 19.906-9.668 41.517-14.218 61.992 0 185.406 0 370.244 0 555.65 0.569 3.412 1.706 6.256 1.706 9.668 15.356 102.94 71.091 173.463 168.913 209.862 19.906 7.394 42.086 9.668 62.56 14.218zM921.486 447.431c0 85.878 0.569 171.188 0 257.066-0.569 87.016-64.835 152.989-151.282 153.557-172.325 0.569-344.651 0.569-516.408 0-85.31-0.569-150.714-65.973-150.714-151.282-0.569-171.757-0.569-343.513 0-515.839 0.569-85.31 65.404-151.282 150.714-151.282 172.325-0.569 344.651-0.569 516.408 0 25.593 0 50.048 6.256 72.798 18.768 52.323 30.143 77.916 76.21 78.485 135.927 0.569 83.603 0 168.344 0 253.085zM512 703.929c143.32 0 255.929-113.177 255.929-256.498 0-142.751-112.609-255.36-255.929-255.36s-255.929 113.177-255.929 256.498c0.569 143.32 113.177 255.36 255.929 255.36zM512 294.443c86.447 0 153.557 66.542 153.557 152.989 0 87.016-67.11 154.126-153.557 154.126s-153.557-66.542-153.557-152.989c0-87.016 66.542-154.126 153.557-154.126zM819.115 704.498c0.569-28.437-23.318-51.755-51.186-51.755s-50.617 22.749-51.186 50.617c-0.569 27.868 23.318 51.755 51.186 51.755s50.617-22.749 51.186-50.617z" />
<glyph unicode="&#xe91e;" glyph-name="youtube2" d="M0.126 285.907c0 108.062 0 216.124 0 324.187 1.706 10.806 2.844 21.612 5.687 32.419 23.887 101.237 106.925 167.212 211.006 167.212 197.356 0 394.711 0 592.067 0 15.925 0 32.987-1.137 48.344-5.119 100.1-23.319 166.075-106.356 166.643-209.299 0.569-98.393 0-196.787 0-295.18 0-38.106-8.531-73.937-27.869-106.925-42.656-71.094-105.787-106.925-188.256-107.493-196.787-0.569-393.005 0-589.792 0-5.119 0-10.237 0-14.787 0.569-91.568 3.981-171.193 68.819-193.943 157.543-4.55 14.219-6.256 28.437-9.1 42.087zM370.95 448c0-43.794 0-87.587 0-130.812 0-18.2 6.825-22.75 22.75-14.787 89.294 42.656 178.587 85.312 267.312 127.4 6.256 2.844 13.65 6.256 11.944 13.65-1.137 5.119-6.825 10.806-11.944 13.081-89.294 45.5-178.587 91-267.881 135.931-15.356 7.962-22.75 3.412-22.75-13.65 0.569-43.225 0.569-87.019 0.569-130.812z" />
<glyph unicode="&#xe91f;" glyph-name="zalo2" d="M963.83 166.887c2.276-41.541-10.812-76.253-48.37-97.878-17.072-9.674-35.85-11.95-55.198-11.95-122.347 0-245.263-0.569-367.61 0-14.795 0-27.315-3.414-39.265-12.519-47.232-34.712-95.032-68.856-142.833-102.999-3.414-2.276-6.26-7.398-11.381-4.552-4.552 2.276-2.845 7.967-2.845 11.95 0 27.884 0 55.767 0 83.082s2.845 24.469-23.9 25.038c-13.088 0-26.177 0-39.265 0-39.265 0.569-78.53-2.845-116.656 6.26-38.696 21.624-56.336 54.629-55.767 99.016 0.569 232.175 0 464.918 0.569 697.093 0 50.646 26.746 86.496 72.27 97.878 10.243 2.845 20.486 2.276 30.729 2.276 231.606 0 463.78-0.569 695.386 0.569 41.541 0 72.839-14.795 95.032-49.508 5.121-18.21 11.381-36.42 9.674-55.767-21.624 15.934-45.524 21.055-72.27 19.917-19.917-1.138-40.403 0-60.32 0-114.949 0-229.898 0-345.417 0-40.403 0-72.839-15.364-93.325-49.508-41.541-68.287 5.121-154.214 85.358-156.49 55.198-1.707 110.397-0.569 165.026-0.569 5.121 0 10.812 2.276 15.364-2.845-2.845-3.983-5.691-7.967-8.536-11.95-92.187-126.899-183.805-253.23-275.992-380.129-17.072-23.9-25.607-48.939-17.072-77.961 11.381-38.127 40.972-58.044 86.496-58.044 141.695 0 283.39 0.569 425.653-0.569 34.712 0 67.149 6.26 94.463 30.16zM963.83 313.703c-31.867 27.884-69.994 31.298-110.397 30.16-51.215-1.138-102.43 0-153.645 0-5.121 0-10.812 0-15.934 0-1.707 6.26 2.276 9.105 4.552 12.519 88.773 120.64 176.976 241.849 265.749 362.488 2.276 3.414 5.691 6.26 9.105 9.105 0.569-137.711 0.569-275.992 0.569-414.272z" />
<glyph unicode="&#xe920;" glyph-name="arrow_left_long" horiz-adv-x="1184" d="M7.352 465.807l268.996 268.996c4.56 4.514 10.835 7.305 17.764 7.305s13.2-2.792 17.765-7.305l-0.002 0.002c4.54-4.557 7.345-10.838 7.345-17.782 0-0.002 0-0.007 0-0.010v0.001c-0.007-6.928-2.813-13.191-7.345-17.736l-226.178-226.178h1073.224c13.851 0 25.080-11.229 25.080-25.080v0c0 0 0 0 0 0 0-13.862-11.222-25.107-25.080-25.137h-1073.225l226.179-226.122c4.54-4.557 7.345-10.838 7.345-17.782 0-0.002 0-0.007 0-0.010v0.001c0-0.002 0-0.008 0-0.011 0-6.904-2.81-13.151-7.344-17.663l-0.001-0.001c-4.502-4.57-10.755-7.401-17.672-7.401-0.039 0-0.084 0-0.127 0.001h0.007c-0.011 0-0.030 0-0.047 0-6.911 0-13.163 2.81-17.685 7.345l-268.996 268.996c-4.542 4.557-7.354 10.846-7.354 17.792s2.81 13.235 7.354 17.793l-0.001-0.001z" />
<glyph unicode="&#xe921;" glyph-name="location" d="M815.158 784.646c-62.146 107.248-172.53 172.77-295.28 175.274-5.24 0.108-10.514 0.108-15.756 0-122.748-2.504-233.132-68.026-295.28-175.274-63.524-109.624-65.262-241.304-4.65-352.246l253.926-464.774c0.114-0.206 0.228-0.412 0.346-0.616 11.172-19.418 31.186-31.010 53.54-31.010 22.352 0 42.366 11.594 53.536 31.010 0.118 0.204 0.232 0.41 0.346 0.616l253.926 464.774c60.608 110.942 58.87 242.622-4.654 352.246zM512 496c-79.402 0-144 64.598-144 144s64.598 144 144 144 144-64.598 144-144-64.596-144-144-144z" />
<glyph unicode="&#xe922;" glyph-name="eye_hidden" d="M186.88 804.266c-3.746 3.984-9.050 6.466-14.932 6.466s-11.188-2.48-14.924-6.454l-22.622-22.622c-3.984-3.746-6.466-9.050-6.466-14.932s2.48-11.188 6.454-14.924l0.010-0.010 110.932-111.788c-71.47-48.278-126.152-116.584-156.498-196.844l-0.942-2.836c-1.52-4.048-2.448-8.726-2.558-13.606l-0.002-0.048c0-0.052 0-0.112 0-0.172 0-4.706 0.942-9.194 2.644-13.284l-0.084 0.23c68.898-168.718 231.73-285.446 421.822-285.446 0.802 0 1.606 0.002 2.408 0.006h-0.124c72.586 0.438 141.068 17.558 201.948 47.714l-2.694-1.206 125.866-125.44c3.746-3.984 9.050-6.466 14.932-6.466s11.188 2.48 14.924 6.454l22.622 22.622c3.984 3.746 6.466 9.050 6.466 14.932s-2.48 11.188-6.454 14.924l-0.010 0.010zM512 213.334c-148.236 0.344-276.306 86.344-337.366 211.112l-0.982 2.222c29.24 63.648 75.106 115.412 132.092 151.046l1.454 0.848 92.16-92.16c-7.886-16.136-12.498-35.11-12.498-55.164 0-70.692 57.308-128 128-128 20.052 0 39.028 4.61 55.924 12.83l-0.76-0.334 75.092-75.092c-39.316-16.174-84.894-26.092-132.634-27.298l-0.486-0.010zM938.668 439.466v0c-69.448 169.322-233.020 286.404-423.938 286.404-44.74 0-87.978-6.43-128.84-18.414l3.23 0.812 72.106-72.106c15.25 2.428 32.842 3.824 50.758 3.84h0.016c148.236-0.344 276.306-86.344 337.366-211.112l0.982-2.222c-17.942-41.328-43.038-76.408-74.046-105.208l-0.194-0.178 60.586-60.586c43.616 41.158 77.604 92.032 98.548 149.196l0.866 2.698c1.628 3.87 2.574 8.37 2.574 13.088 0 0.35-0.004 0.696-0.014 1.042v-0.052c0.332 1.924 0.52 4.14 0.52 6.4s-0.188 4.476-0.552 6.634l0.032-0.232z" />
<glyph unicode="&#xe923;" glyph-name="eye" d="M938.668 439.466v0c-68.788 168.956-231.74 285.892-422 285.892-1.64 0-3.28-0.008-4.916-0.026l0.25 0.002c-0.78 0.004-1.702 0.008-2.628 0.008-189.77 0-352.37-116.33-420.378-281.572l-1.102-3.024c-1.566-4.182-2.502-9.014-2.56-14.054v-0.026c0-0.052 0-0.112 0-0.172 0-4.706 0.942-9.194 2.644-13.284l-0.084 0.23c68.9-168.72 231.728-285.446 421.822-285.446 0.802 0 1.606 0.002 2.408 0.006h-0.124c0.78-0.004 1.702-0.008 2.626-0.008 189.77 0 352.37 116.332 420.378 281.572l1.102 3.024c1.628 3.87 2.574 8.37 2.574 13.088 0 0.35-0.004 0.696-0.014 1.042v-0.052c0.332 1.924 0.52 4.14 0.52 6.4s-0.188 4.476-0.552 6.634l0.032-0.232zM512 213.334c-148.236 0.344-276.306 86.344-337.366 211.112l-0.982 2.222c61.83 127.158 190.034 213.248 338.346 213.248s276.518-86.090 337.37-211.024l0.978-2.224c-62.042-126.99-190.11-212.99-338.3-213.332h-0.046zM512 554.666c-70.692 0-128-57.308-128-128s57.308-128 128-128c70.692 0 128 57.308 128 128v0c0 70.692-57.308 128-128 128v0z" />
<glyph unicode="&#xe924;" glyph-name="address" d="M841.778 960h-638.72c-29.8-0.058-53.936-24.214-53.966-54.012v-75.626h-32.154c-16.57 0-30.004-13.432-30.004-30.004s13.434-30.002 30.004-30.002h32.154v-116.174h-32.154c-16.57 0-30.004-13.432-30.004-30.002s13.434-30.002 30.004-30.002h32.154v-116.174h-32.154c-16.57 0-30.004-13.432-30.004-30.002s13.434-30.002 30.004-30.002h32.154v-116.174h-32.154c-16.57 0-30.004-13.432-30.004-30.004s13.434-30.004 30.004-30.004h32.154v-116.378h-32.154c-16.57 0-30.004-13.432-30.004-30.004s13.434-30.004 30.004-30.004h32.154v-75.622c0.146-29.714 24.238-53.754 53.96-53.812h638.726c52.556 0.116 95.124 42.72 95.182 95.278v833.44c-0.058 52.564-42.626 95.168-95.17 95.284h-0.010zM877.056 31.284c-0.028-19.472-15.806-35.248-35.274-35.278h-632.734v69.632h32.154c16.57 0 30.002 13.432 30.002 30.004s-13.432 30.004-30.002 30.004h-32.154v116.174h32.154c16.57 0 30.002 13.432 30.002 30.004s-13.432 30.004-30.002 30.004h-32.154v116.174h32.154c16.57 0 30.002 13.432 30.002 30.004s-13.432 30.002-30.002 30.002h-32.154v116.174h32.154c16.57 0 30.002 13.432 30.002 30.002s-13.432 30.002-30.002 30.002h-32.154v116.378h32.154c16.57 0 30.002 13.432 30.002 30.002s-13.432 30.002-30.002 30.002h-32.154v69.428h632.73c19.472-0.030 35.248-15.806 35.278-35.274v-0.004zM757.146 125.44h-143.36c-16.57 0-30.004-13.432-30.004-30.004s13.432-30.004 30.004-30.004h143.36c16.57 0 30.004 13.432 30.004 30.004s-13.432 30.004-30.004 30.004v0zM757.146 830.362h-366.746c-16.57 0-30.002-13.432-30.002-30.004v0-162.918c0-16.57 13.432-30.002 30.002-30.002v0h366.694c16.57 0 30.004 13.432 30.004 30.002v0 162.918c0 0 0 0 0 0 0 16.552-13.404 29.974-29.948 30.002h-0.004zM727.040 667.596h-306.638v102.962h306.638z" />
<glyph unicode="&#xe925;" glyph-name="info" d="M554.668 704c0-23.564-19.102-42.668-42.668-42.668s-42.668 19.104-42.668 42.668c0 23.564 19.104 42.668 42.668 42.668v0c23.564 0 42.668-19.104 42.668-42.668v0zM512 149.332c-17.682 0-32.016 14.336-32.016 32.018v0 330.684h-42.666c-17.036 0.812-30.538 14.82-30.538 31.984s13.504 31.17 30.466 31.98l0.072 0.002h74.684c17.682 0 32.018-14.334 32.018-32.016v0-362.632c0-17.682-14.336-32.018-32.018-32.018v0zM512-64c-282.77 0-512 229.23-512 512s229.23 512 512 512c282.77 0 512-229.23 512-512v0c-0.312-282.644-229.356-511.69-511.97-512h-0.030zM512 895.966c-247.442 0-448.034-200.592-448.034-448.034s200.592-448.034 448.034-448.034c247.442 0 448.034 200.592 448.034 448.034 0 0.024 0 0.048 0 0.072v-0.002c-0.312 247.304-200.726 447.694-448.008 447.966h-0.026zM607.982 149.332h-191.966c-17.036 0.812-30.538 14.82-30.538 31.982s13.504 31.172 30.466 31.98l0.072 0.004h192.034c17.682 0 32.018-14.336 32.018-32.018s-14.336-32.018-32.018-32.018v0z" />
<glyph unicode="&#xe926;" glyph-name="check" d="M512 960c-282.77 0-512-229.23-512-512s229.23-512 512-512 512 229.23 512 512c-0.3 282.642-229.354 511.698-512 512zM512 9.144c-242.374 0-438.858 196.482-438.858 438.858s196.484 438.858 438.858 438.858 438.856-196.484 438.856-438.858c-0.26-242.266-196.59-438.596-438.858-438.858zM792.956 656.714c-14.174 13.69-36.64 13.69-50.812 0v0l-339.858-339.858-120.43 120.432c-14.032 14.528-37.186 14.928-51.712 0.898-14.528-14.030-14.93-37.186-0.898-51.712 0.294-0.304 0.594-0.604 0.898-0.898l146.286-146.286c14.28-14.278 37.43-14.278 51.712 0l365.714 365.714c14.030 14.526 13.63 37.678-0.9 51.71z" />
<glyph unicode="&#xe927;" glyph-name="edit" d="M768-64h-658.294c-60.588 0-109.704 49.116-109.704 109.706v0 731.476c0 60.588 49.116 109.704 109.704 109.704v0h438.682c19.518-0.87 35.010-16.904 35.010-36.558s-15.494-35.686-34.932-36.554l-0.078-0.002h-438.682c-20.21 0-36.592-16.382-36.592-36.592v0-731.408c0-20.208 16.382-36.592 36.592-36.592v0h658.294c20.208 0 36.592 16.382 36.592 36.592v0 365.706c0.87 19.518 16.904 35.010 36.558 35.010s35.688-15.494 36.554-34.932l0.004-0.078v-365.704c0-0.020 0-0.044 0-0.068 0-60.588-49.116-109.706-109.706-109.706v0zM883.986 960c-0.134 0-0.294 0.002-0.456 0.002-38.506 0-73.356-15.658-98.526-40.954l-481.968-481.764c-3.88-3.908-6.894-8.684-8.728-14.008l-0.078-0.26-73.114-219.408c-1.112-3.346-1.754-7.196-1.754-11.196 0-20.154 16.294-36.502 36.426-36.592h0.008c0.002 0 0.002 0 0.004 0 4.124 0 8.088 0.674 11.794 1.918l-0.262-0.076 219.408 73.114c5.594 1.918 10.37 4.956 14.266 8.874l481.692 481.692c25.286 25.33 40.922 60.298 40.922 98.918 0 77.29-62.626 139.956-139.904 140.014h-0.006z" />
<glyph unicode="&#xe928;" glyph-name="linkedin" d="M20.48 618.667h184.32v-634.88h-184.32v634.88zM116.053 707.413c-27.307 0-61.44 6.827-81.92 27.307s-34.133 47.787-34.133 75.093c0 27.307 13.653 54.613 34.133 75.093s54.613 27.307 81.92 27.307c27.307 0 61.44-6.827 81.92-27.307s34.133-40.96 34.133-68.267c0-27.307-13.653-54.613-34.133-75.093-27.307-27.307-54.613-34.133-81.92-34.133v0zM757.76 625.493c68.267 0 136.533-20.48 191.147-68.267 54.613-54.613 81.92-129.707 75.093-211.627v-361.813h-184.32v334.507c0 40.96-6.827 81.92-34.133 109.227s-61.44 40.96-95.573 34.133c-40.96 0-81.92-13.653-109.227-40.96s-47.787-75.093-40.96-122.88v-314.027h-184.32v634.88h177.493v-75.093c27.307 27.307 54.613 47.787 88.747 61.44 40.96 13.653 75.093 20.48 116.053 20.48v0z" />
<glyph unicode="&#xe929;" glyph-name="alibaba" d="M1024 386.56c0 0-320.853-184.32-457.387-184.32s-20.48 143.36 20.48 191.147c40.96 47.787 129.707 150.187 129.707 191.147s-68.267 68.267-136.533 81.92l-20.48-13.653 27.307-27.307c0 0-300.373-61.44-327.68-88.747l13.653-34.133-47.787-54.613c68.267-20.48 143.36-6.827 197.973 40.96-6.827 6.827-13.653 13.653-20.48 20.48 13.653-6.827 20.48-13.653 27.307-20.48 6.827 0 6.827-6.827 13.653-13.653 0-6.827 6.827-13.653 6.827-20.48h-20.48c0 6.827 0 6.827 0 13.653 0 0 0 0 0 0-40.96-27.307-95.573-47.787-150.187-47.787h-13.653c-27.307 0-54.613 6.827-75.093 20.48v0-68.267c0 0-102.4-34.133-102.4-88.747s143.36-68.267 314.027-13.653c0 0-143.36-75.093-273.067-75.093s-136.533 81.92-136.533 102.4c0 27.307 6.827 136.533 218.453 286.72 197.973 143.36 416.427 136.533 498.347 95.573 68.267-34.133 75.093-116.053 13.653-197.973-75.093-102.4-163.84-184.32-143.36-204.8 40.96-40.96 354.987 68.267 443.733 109.227z" />
</font>
</defs>
</svg>
